<svg width="340mm" height="399mm" viewBox="0 0 340 399" xmlns="http://www.w3.org/2000/svg" version="1.1" preserveAspectRatio="xMidYMid meet"><g id="svgGroup" stroke-linecap="round" fill-rule="evenodd" font-size="9pt" stroke="#000" stroke-width="0.25mm" fill="none" style="stroke:#000;stroke-width:0.25mm;fill:none"><path d="M 0 201 L 0 230 L 4 230 L 4 250 L 0 250 L 0 270 L 4 270 L 4 290 L 0 290 L 0 310 L 4 310 L 4 330 L 0 330 L 0 350 L 4 350 L 4 370 L 0 370 L 0 390 L 0 399 L 14 399 L 14 395 L 34 395 L 34 399 L 54 399 L 54 395 L 74 395 L 74 399 L 88 399 L 88 370 L 84 370 L 84 350 L 88 350 L 88 330 L 84 330 L 84 310 L 88 310 L 88 290 L 84 290 L 84 270 L 88 270 L 88 250 L 84 250 L 84 230 L 88 230 L 88 210 L 88 201 L 74 201 L 74 205 L 54 205 L 54 201 L 34 201 L 34 205 L 14 205 L 14 201 L 0 201 Z" id="front_outsideCutPath" stroke="#FF0000" stroke-width="0.1" style="stroke:#FF0000;stroke-width:0.1" vector-effect="non-scaling-stroke"/><path d="M 56.826 306.647 L 55.4 306.647 L 55.4 300.554 A 4.033 4.033 0 0 0 55.353 299.922 Q 55.3 299.589 55.187 299.323 A 1.697 1.697 0 0 0 54.875 298.835 A 1.608 1.608 0 0 0 54.216 298.414 Q 53.801 298.268 53.234 298.268 Q 51.756 298.268 51.068 299.067 A 2.332 2.332 0 0 0 50.663 299.776 Q 50.419 300.426 50.386 301.396 A 9.139 9.139 0 0 0 50.381 301.706 L 50.381 306.647 L 48.954 306.647 L 48.954 297.228 L 50.114 297.228 L 50.346 298.517 L 50.415 298.517 A 2.889 2.889 0 0 1 51.547 297.488 A 3.473 3.473 0 0 1 51.644 297.439 Q 52.435 297.056 53.406 297.056 A 5.632 5.632 0 0 1 54.365 297.133 Q 54.883 297.222 55.292 297.417 A 2.564 2.564 0 0 1 55.967 297.877 A 2.472 2.472 0 0 1 56.569 298.823 Q 56.714 299.213 56.777 299.695 A 6.225 6.225 0 0 1 56.826 300.503 L 56.826 306.647 Z M 29.421 297.228 L 29.421 298.337 L 27.023 298.337 L 27.023 306.647 L 25.596 306.647 L 25.596 298.337 L 23.912 298.337 L 23.912 297.692 L 25.596 297.177 L 25.596 296.653 Q 25.596 293.181 28.63 293.181 Q 29.378 293.181 30.383 293.481 L 30.014 294.624 Q 29.189 294.358 28.604 294.358 A 1.924 1.924 0 0 0 28.141 294.41 A 1.236 1.236 0 0 0 27.41 294.895 A 1.651 1.651 0 0 0 27.192 295.335 Q 27.047 295.765 27.026 296.404 A 6.735 6.735 0 0 0 27.023 296.618 L 27.023 297.228 L 29.421 297.228 Z M 64.088 305.47 L 64.088 306.561 A 1.403 1.403 0 0 1 63.921 306.627 Q 63.715 306.696 63.405 306.746 A 6.183 6.183 0 0 1 63.002 306.798 Q 62.811 306.816 62.641 306.819 A 3.658 3.658 0 0 1 62.593 306.819 A 3.726 3.726 0 0 1 61.495 306.671 Q 60.288 306.299 59.972 304.988 A 4.484 4.484 0 0 1 59.86 303.94 L 59.86 298.337 L 58.511 298.337 L 58.511 297.649 L 59.86 297.056 L 60.461 295.046 L 61.286 295.046 L 61.286 297.228 L 64.019 297.228 L 64.019 298.337 L 61.286 298.337 L 61.286 303.88 A 2.873 2.873 0 0 0 61.328 304.384 Q 61.416 304.877 61.69 305.186 A 1.325 1.325 0 0 0 62.505 305.62 A 1.907 1.907 0 0 0 62.799 305.642 Q 63.177 305.642 63.529 305.586 Q 63.882 305.53 64.088 305.47 Z M 36.562 297.16 L 36.364 298.483 Q 35.878 298.376 35.486 298.358 A 3.346 3.346 0 0 0 35.333 298.354 A 2.472 2.472 0 0 0 33.507 299.143 A 3.382 3.382 0 0 0 33.378 299.282 A 3.258 3.258 0 0 0 32.592 301.111 A 4.33 4.33 0 0 0 32.566 301.594 L 32.566 306.647 L 31.139 306.647 L 31.139 297.228 L 32.317 297.228 L 32.48 298.973 L 32.549 298.973 A 4.818 4.818 0 0 1 33.087 298.203 A 3.68 3.68 0 0 1 33.812 297.555 A 2.844 2.844 0 0 1 35.436 297.056 A 6.549 6.549 0 0 1 36.023 297.081 A 4.78 4.78 0 0 1 36.562 297.16 Z M 46.323 303.363 A 7.369 7.369 0 0 0 46.454 301.929 Q 46.454 301.014 46.259 300.253 A 4.442 4.442 0 0 0 45.289 298.371 A 3.735 3.735 0 0 0 43.555 297.253 A 4.794 4.794 0 0 0 42.148 297.056 A 5.541 5.541 0 0 0 41.153 297.142 A 3.773 3.773 0 0 0 38.951 298.341 A 3.941 3.941 0 0 0 38.467 299.012 Q 38.094 299.662 37.93 300.497 A 7.407 7.407 0 0 0 37.8 301.929 A 7.137 7.137 0 0 0 37.889 303.085 A 5.277 5.277 0 0 0 38.332 304.524 A 4.689 4.689 0 0 0 38.436 304.728 A 3.862 3.862 0 0 0 39.845 306.226 A 3.972 3.972 0 0 0 40.757 306.631 A 4.581 4.581 0 0 0 42.088 306.819 A 5.54 5.54 0 0 0 43.055 306.738 A 3.803 3.803 0 0 0 45.293 305.526 Q 46.064 304.667 46.323 303.363 Z M 39.582 303.909 A 2.993 2.993 0 0 0 40 304.679 A 2.338 2.338 0 0 0 41.522 305.576 A 3.543 3.543 0 0 0 42.122 305.624 Q 43.523 305.624 44.249 304.683 A 3.062 3.062 0 0 0 44.726 303.755 Q 44.975 302.992 44.975 301.929 Q 44.975 300.777 44.677 299.98 A 2.937 2.937 0 0 0 44.249 299.201 A 2.347 2.347 0 0 0 42.79 298.33 A 3.598 3.598 0 0 0 42.105 298.268 A 3.395 3.395 0 0 0 41.26 298.367 A 2.272 2.272 0 0 0 39.991 299.188 Q 39.478 299.85 39.334 300.979 A 7.538 7.538 0 0 0 39.278 301.929 Q 39.278 303.1 39.582 303.909 Z" id="front_labelLayer" stroke="#000000" fill="#000000" style="stroke:#000000;fill:#000000" vector-effect="non-scaling-stroke"/><path d="M 95 201 L 95 230 L 91 230 L 91 250 L 95 250 L 95 270 L 91 270 L 91 290 L 95 290 L 95 310 L 91 310 L 91 330 L 95 330 L 95 350 L 91 350 L 91 370 L 95 370 L 95 390 L 95 399 L 120 399 L 120 395 L 140 395 L 140 399 L 160 399 L 160 395 L 180 395 L 180 399 L 200 399 L 200 395 L 220 395 L 220 399 L 240 399 L 245 399 L 245 370 L 249 370 L 249 350 L 245 350 L 245 330 L 249 330 L 249 310 L 245 310 L 245 290 L 249 290 L 249 270 L 245 270 L 245 250 L 249 250 L 249 230 L 245 230 L 245 210 L 245 201 L 220 201 L 220 205 L 200 205 L 200 201 L 180 201 L 180 205 L 160 205 L 160 201 L 140 201 L 140 205 L 120 205 L 120 201 L 100 201 L 95 201 Z" id="left_outsideCutPath" stroke="#FF0000" stroke-width="0.1" style="stroke:#FF0000;stroke-width:0.1" vector-effect="non-scaling-stroke"/><path d="M 181.241 295.024 L 181.241 297.014 L 176.936 297.014 L 176.936 311.935 L 174.374 311.935 L 174.374 297.014 L 171.35 297.014 L 171.35 295.857 L 174.374 294.931 L 174.374 293.99 Q 174.374 288.609 178.433 287.873 A 7.785 7.785 0 0 1 179.821 287.756 A 8.248 8.248 0 0 1 180.988 287.845 Q 181.556 287.927 182.188 288.083 A 16.58 16.58 0 0 1 182.969 288.296 L 182.305 290.348 Q 180.824 289.87 179.775 289.87 A 3.454 3.454 0 0 0 178.942 289.964 A 2.218 2.218 0 0 0 177.63 290.834 A 2.964 2.964 0 0 0 177.238 291.624 Q 176.936 292.522 176.936 293.928 L 176.936 295.024 L 181.241 295.024 Z M 169.252 302.322 L 169.252 303.942 L 157.602 303.942 Q 157.679 306.92 159.107 308.463 A 4.654 4.654 0 0 0 161.55 309.84 A 7.052 7.052 0 0 0 163.126 310.006 A 13.528 13.528 0 0 0 168.193 309.002 A 15.502 15.502 0 0 0 168.526 308.864 L 168.526 311.148 A 15.377 15.377 0 0 1 167.125 311.677 A 11.759 11.759 0 0 1 165.957 311.989 Q 165.016 312.186 163.771 312.231 A 20.868 20.868 0 0 1 163.033 312.243 A 9.953 9.953 0 0 1 160.543 311.948 A 7.048 7.048 0 0 1 157.116 309.96 A 7.538 7.538 0 0 1 155.313 306.648 Q 154.948 305.282 154.948 303.618 A 13.449 13.449 0 0 1 155.197 300.951 Q 155.656 298.683 156.962 297.122 A 6.563 6.563 0 0 1 161.746 294.736 A 9.054 9.054 0 0 1 162.37 294.715 A 7.803 7.803 0 0 1 164.567 295.009 A 5.938 5.938 0 0 1 167.4 296.806 A 7.162 7.162 0 0 1 169.023 300.078 A 10.425 10.425 0 0 1 169.252 302.322 Z M 192.103 309.821 L 192.103 311.78 A 2.519 2.519 0 0 1 191.804 311.899 Q 191.485 312.005 191.029 312.086 A 9.578 9.578 0 0 1 190.876 312.112 Q 190.12 312.234 189.505 312.243 A 6.565 6.565 0 0 1 189.418 312.243 A 6.69 6.69 0 0 1 187.447 311.978 Q 185.28 311.309 184.713 308.955 A 8.051 8.051 0 0 1 184.512 307.074 L 184.512 297.014 L 182.089 297.014 L 182.089 295.78 L 184.512 294.715 L 185.592 291.104 L 187.073 291.104 L 187.073 295.024 L 191.98 295.024 L 191.98 297.014 L 187.073 297.014 L 187.073 306.966 A 5.158 5.158 0 0 0 187.147 307.872 Q 187.305 308.756 187.798 309.311 A 2.379 2.379 0 0 0 189.261 310.09 A 3.423 3.423 0 0 0 189.789 310.129 A 8.412 8.412 0 0 0 191.021 310.041 A 7.749 7.749 0 0 0 191.1 310.029 A 13.856 13.856 0 0 0 191.47 309.966 Q 191.823 309.9 192.069 309.831 A 3.848 3.848 0 0 0 192.103 309.821 Z M 150.458 287.926 L 150.458 311.935 L 147.897 311.935 L 147.897 287.926 L 150.458 287.926 Z M 157.664 301.859 L 166.505 301.859 A 8.728 8.728 0 0 0 166.4 300.456 Q 166.277 299.703 166.011 299.101 A 3.963 3.963 0 0 0 165.425 298.148 A 3.509 3.509 0 0 0 163.312 296.945 A 5.264 5.264 0 0 0 162.339 296.86 A 5.049 5.049 0 0 0 160.881 297.06 A 3.901 3.901 0 0 0 159.091 298.187 A 5.06 5.06 0 0 0 158.085 299.884 Q 157.83 300.582 157.714 301.422 A 9.677 9.677 0 0 0 157.664 301.859 Z" id="left_labelLayer" stroke="#000000" fill="#000000" style="stroke:#000000;fill:#000000" vector-effect="non-scaling-stroke"/><path d="M 256 245 L 256 270 L 252 270 L 252 290 L 256 290 L 256 310 L 252 310 L 252 330 L 256 330 L 256 350 L 252 350 L 252 370 L 256 370 L 256 390 L 256 395 L 266 395 L 266 399 L 286 399 L 286 395 L 306 395 L 306 399 L 326 399 L 326 395 L 336 395 L 336 370 L 340 370 L 340 350 L 336 350 L 336 330 L 340 330 L 340 310 L 336 310 L 336 290 L 340 290 L 340 270 L 336 270 L 336 250 L 336 245 L 326 245 L 326 241 L 306 241 L 306 245 L 286 245 L 286 241 L 266 241 L 266 245 L 256 245 Z" id="top_outsideCutPath" stroke="#FF0000" stroke-width="0.1" style="stroke:#FF0000;stroke-width:0.1" vector-effect="non-scaling-stroke"/><path d="M 302.325 322.475 L 302.222 322.475 A 13.501 13.501 0 0 1 302.31 323.473 A 11.313 11.313 0 0 1 302.325 324.039 L 302.325 327.915 L 300.898 327.915 L 300.898 314.268 L 302.059 314.268 L 302.256 315.557 L 302.325 315.557 A 3.84 3.84 0 0 1 302.88 314.926 A 2.969 2.969 0 0 1 303.605 314.44 A 3.573 3.573 0 0 1 304.629 314.14 A 4.624 4.624 0 0 1 305.281 314.096 A 4.373 4.373 0 0 1 306.517 314.261 A 3.232 3.232 0 0 1 308.173 315.377 A 4.283 4.283 0 0 1 308.904 316.804 Q 309.093 317.419 309.157 318.159 A 9.289 9.289 0 0 1 309.191 318.969 A 8.364 8.364 0 0 1 309.081 320.376 Q 308.952 321.126 308.676 321.728 A 4.01 4.01 0 0 1 308.156 322.574 A 3.377 3.377 0 0 1 305.756 323.836 A 4.838 4.838 0 0 1 305.281 323.859 A 4.327 4.327 0 0 1 304.194 323.726 A 3.765 3.765 0 0 1 303.601 323.519 A 3.16 3.16 0 0 1 302.325 322.475 Z M 288.386 322.509 L 288.386 323.601 A 1.403 1.403 0 0 1 288.219 323.667 Q 288.013 323.735 287.703 323.786 A 6.183 6.183 0 0 1 287.3 323.838 Q 287.109 323.856 286.939 323.858 A 3.658 3.658 0 0 1 286.891 323.859 A 3.726 3.726 0 0 1 285.793 323.711 Q 284.586 323.338 284.27 322.027 A 4.484 4.484 0 0 1 284.158 320.98 L 284.158 315.377 L 282.809 315.377 L 282.809 314.689 L 284.158 314.096 L 284.759 312.085 L 285.584 312.085 L 285.584 314.268 L 288.317 314.268 L 288.317 315.377 L 285.584 315.377 L 285.584 320.92 A 2.873 2.873 0 0 0 285.626 321.424 Q 285.714 321.916 285.988 322.226 A 1.325 1.325 0 0 0 286.803 322.659 A 1.907 1.907 0 0 0 287.097 322.681 Q 287.475 322.681 287.827 322.625 Q 288.18 322.57 288.386 322.509 Z M 298.267 320.402 A 7.369 7.369 0 0 0 298.398 318.969 Q 298.398 318.053 298.204 317.292 A 4.442 4.442 0 0 0 297.233 315.411 A 3.735 3.735 0 0 0 295.499 314.293 A 4.794 4.794 0 0 0 294.092 314.096 A 5.541 5.541 0 0 0 293.097 314.181 A 3.773 3.773 0 0 0 290.895 315.381 A 3.941 3.941 0 0 0 290.411 316.052 Q 290.038 316.702 289.874 317.536 A 7.407 7.407 0 0 0 289.744 318.969 A 7.137 7.137 0 0 0 289.833 320.125 A 5.277 5.277 0 0 0 290.276 321.564 A 4.689 4.689 0 0 0 290.38 321.767 A 3.862 3.862 0 0 0 291.789 323.266 A 3.972 3.972 0 0 0 292.701 323.671 A 4.581 4.581 0 0 0 294.032 323.859 A 5.54 5.54 0 0 0 294.999 323.778 A 3.803 3.803 0 0 0 297.237 322.565 Q 298.008 321.706 298.267 320.402 Z M 291.526 320.949 A 2.993 2.993 0 0 0 291.944 321.719 A 2.338 2.338 0 0 0 293.466 322.616 A 3.543 3.543 0 0 0 294.066 322.664 Q 295.467 322.664 296.193 321.723 A 3.062 3.062 0 0 0 296.67 320.794 Q 296.919 320.031 296.919 318.969 Q 296.919 317.817 296.621 317.02 A 2.937 2.937 0 0 0 296.193 316.24 A 2.347 2.347 0 0 0 294.734 315.37 A 3.598 3.598 0 0 0 294.049 315.308 A 3.395 3.395 0 0 0 293.204 315.407 A 2.272 2.272 0 0 0 291.935 316.227 Q 291.422 316.889 291.278 318.019 A 7.538 7.538 0 0 0 291.222 318.969 Q 291.222 320.14 291.526 320.949 Z M 302.325 318.651 L 302.325 318.969 Q 302.325 320.954 302.987 321.809 Q 303.648 322.664 305.109 322.664 A 2.404 2.404 0 0 0 306.044 322.489 Q 306.621 322.248 307.021 321.676 Q 307.567 320.896 307.682 319.651 A 7.6 7.6 0 0 0 307.713 318.952 A 7.199 7.199 0 0 0 307.646 317.931 Q 307.571 317.413 307.415 316.993 A 3.024 3.024 0 0 0 307.021 316.249 A 2.219 2.219 0 0 0 305.398 315.324 A 3.069 3.069 0 0 0 305.075 315.308 A 4.11 4.11 0 0 0 304.307 315.375 Q 303.445 315.539 302.987 316.107 Q 302.383 316.855 302.33 318.432 A 9.08 9.08 0 0 0 302.325 318.651 Z" id="top_labelLayer" stroke="#000000" fill="#000000" style="stroke:#000000;fill:#000000" vector-effect="non-scaling-stroke"/><path d="M 0 0 L 0 29 L 4 29 L 4 49 L 0 49 L 0 69 L 4 69 L 4 89 L 0 89 L 0 109 L 4 109 L 4 129 L 0 129 L 0 149 L 4 149 L 4 169 L 0 169 L 0 189 L 0 198 L 14 198 L 14 194 L 34 194 L 34 198 L 54 198 L 54 194 L 74 194 L 74 198 L 88 198 L 88 169 L 84 169 L 84 149 L 88 149 L 88 129 L 84 129 L 84 109 L 88 109 L 88 89 L 84 89 L 84 69 L 88 69 L 88 49 L 84 49 L 84 29 L 88 29 L 88 9 L 88 0 L 74 0 L 74 4 L 54 4 L 54 0 L 34 0 L 34 4 L 14 4 L 14 0 L 0 0 Z" id="back_outsideCutPath" stroke="#FF0000" stroke-width="0.1" style="stroke:#FF0000;stroke-width:0.1" vector-effect="non-scaling-stroke"/><path d="M 56.048 100.779 L 56.117 100.779 A 8.445 8.445 0 0 1 56.326 100.496 Q 56.567 100.184 56.91 99.785 A 30.653 30.653 0 0 1 57.243 99.404 L 60.285 96.181 L 61.978 96.181 L 58.163 100.194 L 62.245 105.6 L 60.517 105.6 L 57.191 101.148 L 56.117 102.076 L 56.117 105.6 L 54.708 105.6 L 54.708 92.228 L 56.117 92.228 L 56.117 99.318 A 9.507 9.507 0 0 1 56.113 99.586 Q 56.1 100.027 56.051 100.743 A 59.961 59.961 0 0 1 56.048 100.779 Z M 27.182 104.388 L 27.079 104.388 L 26.778 105.6 L 25.755 105.6 L 25.755 92.228 L 27.182 92.228 L 27.182 95.476 A 29.743 29.743 0 0 1 27.166 96.481 Q 27.149 96.988 27.113 97.436 L 27.182 97.436 Q 28.179 96.026 30.138 96.026 A 4.36 4.36 0 0 1 31.365 96.19 A 3.264 3.264 0 0 1 33.021 97.294 A 4.204 4.204 0 0 1 33.759 98.714 Q 34.048 99.649 34.048 100.882 A 8.364 8.364 0 0 1 33.938 102.289 Q 33.809 103.039 33.533 103.641 A 4.01 4.01 0 0 1 33.013 104.487 A 3.377 3.377 0 0 1 30.613 105.749 A 4.838 4.838 0 0 1 30.138 105.772 A 4.327 4.327 0 0 1 29.051 105.639 A 3.765 3.765 0 0 1 28.458 105.432 A 3.16 3.16 0 0 1 27.182 104.388 Z M 43.39 105.6 L 42.333 105.6 L 42.049 104.259 L 41.98 104.259 Q 41.276 105.144 40.575 105.458 A 3.29 3.29 0 0 1 39.896 105.673 Q 39.416 105.772 38.827 105.772 A 4.378 4.378 0 0 1 37.936 105.687 Q 37.391 105.573 36.973 105.31 A 2.457 2.457 0 0 1 36.631 105.05 A 2.345 2.345 0 0 1 35.924 103.813 A 3.589 3.589 0 0 1 35.836 102.996 A 2.468 2.468 0 0 1 37.24 100.666 Q 38.285 100.11 40.109 100.017 A 13.934 13.934 0 0 1 40.399 100.005 L 41.998 99.954 L 41.998 99.369 A 4.097 4.097 0 0 0 41.958 98.777 Q 41.86 98.108 41.521 97.732 A 1.448 1.448 0 0 0 40.928 97.345 Q 40.538 97.204 39.995 97.204 Q 39.049 97.204 37.902 97.67 A 9.554 9.554 0 0 0 37.331 97.926 L 36.893 96.834 A 6.577 6.577 0 0 1 38.162 96.312 A 7.487 7.487 0 0 1 38.418 96.241 A 6.607 6.607 0 0 1 40.081 96.026 A 6.025 6.025 0 0 1 40.999 96.091 Q 41.471 96.164 41.847 96.319 A 2.428 2.428 0 0 1 42.578 96.774 A 2.259 2.259 0 0 1 43.161 97.673 Q 43.297 98.043 43.352 98.502 A 5.613 5.613 0 0 1 43.39 99.172 L 43.39 105.6 Z M 52.611 96.499 L 52.173 97.711 A 6.346 6.346 0 0 0 51.484 97.482 A 7.58 7.58 0 0 0 51.141 97.397 Q 50.583 97.273 50.153 97.273 Q 47.283 97.273 47.283 100.933 A 6.909 6.909 0 0 0 47.351 101.94 Q 47.502 102.959 47.983 103.598 A 2.266 2.266 0 0 0 49.451 104.475 A 3.451 3.451 0 0 0 50.059 104.526 A 5.972 5.972 0 0 0 51.706 104.286 A 7.373 7.373 0 0 0 52.473 104.019 L 52.473 105.282 A 4.058 4.058 0 0 1 51.481 105.633 Q 51.022 105.735 50.489 105.762 A 7.823 7.823 0 0 1 50.093 105.772 A 5.332 5.332 0 0 1 48.796 105.623 A 3.615 3.615 0 0 1 46.926 104.513 A 4.126 4.126 0 0 1 46.068 102.937 Q 45.879 102.311 45.826 101.559 A 8.626 8.626 0 0 1 45.805 100.951 A 7.871 7.871 0 0 1 45.927 99.519 Q 46.074 98.721 46.402 98.092 A 3.933 3.933 0 0 1 46.943 97.298 A 3.694 3.694 0 0 1 48.966 96.135 A 5.6 5.6 0 0 1 50.187 96.009 A 6.438 6.438 0 0 1 51.545 96.155 Q 52.217 96.3 52.602 96.495 A 2.115 2.115 0 0 1 52.611 96.499 Z M 29.932 97.221 A 4.009 4.009 0 0 0 29.156 97.291 Q 28.713 97.378 28.378 97.575 A 1.897 1.897 0 0 0 27.827 98.059 Q 27.182 98.897 27.182 100.882 Q 27.182 102.867 27.844 103.722 Q 28.505 104.577 29.966 104.577 Q 31.281 104.577 31.926 103.619 A 3.275 3.275 0 0 0 32.331 102.743 Q 32.458 102.326 32.518 101.822 A 8.174 8.174 0 0 0 32.57 100.865 A 8.428 8.428 0 0 0 32.519 99.904 Q 32.389 98.772 31.926 98.123 Q 31.281 97.221 29.932 97.221 Z M 41.963 101.819 L 41.963 100.968 L 40.537 101.028 A 10.475 10.475 0 0 0 39.7 101.089 Q 38.635 101.213 38.083 101.557 A 1.522 1.522 0 0 0 37.358 102.661 A 2.253 2.253 0 0 0 37.331 103.013 Q 37.331 103.787 37.8 104.191 A 1.553 1.553 0 0 0 38.381 104.499 Q 38.612 104.568 38.887 104.587 A 3.208 3.208 0 0 0 39.11 104.594 Q 40.442 104.594 41.203 103.864 A 2.389 2.389 0 0 0 41.869 102.671 Q 41.963 102.281 41.963 101.819 Z" id="back_labelLayer" stroke="#000000" fill="#000000" style="stroke:#000000;fill:#000000" vector-effect="non-scaling-stroke"/><path d="M 95 0 L 95 29 L 91 29 L 91 49 L 95 49 L 95 69 L 91 69 L 91 89 L 95 89 L 95 109 L 91 109 L 91 129 L 95 129 L 95 149 L 91 149 L 91 169 L 95 169 L 95 189 L 95 198 L 120 198 L 120 194 L 140 194 L 140 198 L 160 198 L 160 194 L 180 194 L 180 198 L 200 198 L 200 194 L 220 194 L 220 198 L 240 198 L 245 198 L 245 169 L 249 169 L 249 149 L 245 149 L 245 129 L 249 129 L 249 109 L 245 109 L 245 89 L 249 89 L 249 69 L 245 69 L 245 49 L 249 49 L 249 29 L 245 29 L 245 9 L 245 0 L 220 0 L 220 4 L 200 4 L 200 0 L 180 0 L 180 4 L 160 4 L 160 0 L 140 0 L 140 4 L 120 4 L 120 0 L 100 0 L 95 0 Z" id="right_outsideCutPath" stroke="#FF0000" stroke-width="0.1" style="stroke:#FF0000;stroke-width:0.1" vector-effect="non-scaling-stroke"/><path d="M 189.65 107.209 L 187.088 107.209 L 187.088 96.269 Q 187.088 94.951 186.706 94.059 A 3.047 3.047 0 0 0 186.147 93.183 A 2.888 2.888 0 0 0 184.963 92.427 Q 184.498 92.263 183.925 92.201 A 6.79 6.79 0 0 0 183.2 92.165 Q 181.457 92.165 180.329 92.783 A 3.586 3.586 0 0 0 179.304 93.615 A 4.262 4.262 0 0 0 178.581 94.897 Q 178.077 96.252 178.077 98.367 L 178.077 107.209 L 175.516 107.209 L 175.516 83.2 L 178.077 83.2 L 178.077 90.467 A 23.041 23.041 0 0 1 178.061 91.352 Q 178.046 91.767 178.013 92.123 A 10.019 10.019 0 0 1 177.954 92.643 L 178.108 92.643 A 5.117 5.117 0 0 1 179.901 90.917 A 6.252 6.252 0 0 1 180.261 90.722 A 6.575 6.575 0 0 1 182.419 90.082 A 8.313 8.313 0 0 1 183.447 90.02 A 10.392 10.392 0 0 1 185.193 90.157 Q 187.021 90.469 188.099 91.493 A 4.46 4.46 0 0 1 189.199 93.221 Q 189.65 94.446 189.65 96.176 L 189.65 107.209 Z M 166.197 90.298 L 172.044 90.298 L 172.044 91.918 L 168.912 92.288 Q 169.344 92.828 169.684 93.7 A 4.928 4.928 0 0 1 169.975 94.877 A 6.328 6.328 0 0 1 170.023 95.667 A 5.872 5.872 0 0 1 169.754 97.487 A 4.749 4.749 0 0 1 168.326 99.633 A 5.681 5.681 0 0 1 166.091 100.81 Q 165.245 101.047 164.241 101.099 A 11.125 11.125 0 0 1 163.666 101.114 A 8.232 8.232 0 0 1 162.714 101.061 A 6.951 6.951 0 0 1 162.247 100.99 Q 160.611 101.854 160.611 103.166 A 1.328 1.328 0 0 0 160.678 103.6 Q 160.807 103.974 161.182 104.192 A 1.797 1.797 0 0 0 161.58 104.356 Q 161.997 104.478 162.633 104.511 A 9.744 9.744 0 0 0 163.142 104.524 L 166.135 104.524 Q 167.967 104.524 169.232 105.039 A 4.629 4.629 0 0 1 170.355 105.681 A 3.747 3.747 0 0 1 171.747 108.068 A 5.628 5.628 0 0 1 171.828 109.045 A 5.546 5.546 0 0 1 171.512 110.963 Q 170.984 112.405 169.576 113.326 A 7.681 7.681 0 0 1 167.595 114.224 Q 166.62 114.521 165.429 114.665 A 20.301 20.301 0 0 1 163.003 114.8 A 14.35 14.35 0 0 1 161.078 114.679 Q 160.101 114.547 159.303 114.268 A 5.952 5.952 0 0 1 157.888 113.566 A 4.082 4.082 0 0 1 156.572 112.138 Q 156.15 111.356 156.098 110.366 A 5.409 5.409 0 0 1 156.09 110.078 Q 156.09 108.535 157.078 107.409 A 4.472 4.472 0 0 1 158.614 106.29 A 6.339 6.339 0 0 1 159.855 105.882 A 2.658 2.658 0 0 1 158.823 105.047 A 3.156 3.156 0 0 1 158.767 104.971 Q 158.327 104.354 158.327 103.536 A 2.929 2.929 0 0 1 158.475 102.593 A 2.596 2.596 0 0 1 158.821 101.916 A 3.666 3.666 0 0 1 159.305 101.37 Q 159.563 101.129 159.893 100.893 A 8.046 8.046 0 0 1 160.38 100.574 Q 159.068 100.034 158.243 98.738 A 5.295 5.295 0 0 1 157.43 96.186 A 6.462 6.462 0 0 1 157.417 95.775 A 7.4 7.4 0 0 1 157.612 94.025 A 4.869 4.869 0 0 1 159.083 91.493 Q 160.523 90.194 162.998 90.017 A 11.312 11.312 0 0 1 163.805 89.989 Q 165.132 89.989 166.197 90.298 Z M 202.688 105.095 L 202.688 107.054 A 2.519 2.519 0 0 1 202.389 107.173 Q 202.07 107.278 201.614 107.36 A 9.578 9.578 0 0 1 201.461 107.386 Q 200.705 107.508 200.09 107.517 A 6.565 6.565 0 0 1 200.003 107.517 A 6.69 6.69 0 0 1 198.032 107.252 Q 195.865 106.583 195.297 104.229 A 8.051 8.051 0 0 1 195.096 102.348 L 195.096 92.288 L 192.674 92.288 L 192.674 91.054 L 195.096 89.989 L 196.176 86.378 L 197.658 86.378 L 197.658 90.298 L 202.564 90.298 L 202.564 92.288 L 197.658 92.288 L 197.658 102.24 A 5.158 5.158 0 0 0 197.732 103.146 Q 197.89 104.03 198.383 104.585 A 2.379 2.379 0 0 0 199.846 105.364 A 3.423 3.423 0 0 0 200.373 105.403 A 8.412 8.412 0 0 0 201.606 105.315 A 7.749 7.749 0 0 0 201.685 105.303 A 13.856 13.856 0 0 0 202.055 105.239 Q 202.408 105.174 202.653 105.104 A 3.848 3.848 0 0 0 202.688 105.095 Z M 147.048 90.174 L 146.693 92.55 A 11.289 11.289 0 0 0 145.882 92.4 Q 145.318 92.319 144.842 92.319 A 4.438 4.438 0 0 0 141.563 93.735 A 6.072 6.072 0 0 0 141.332 93.985 A 5.849 5.849 0 0 0 139.921 97.269 A 7.774 7.774 0 0 0 139.874 98.136 L 139.874 107.209 L 137.312 107.209 L 137.312 90.298 L 139.426 90.298 L 139.719 93.43 L 139.843 93.43 Q 140.784 91.779 142.111 90.884 Q 143.438 89.989 145.027 89.989 Q 146.153 89.989 147.048 90.174 Z M 152.773 90.298 L 152.773 107.209 L 150.211 107.209 L 150.211 90.298 L 152.773 90.298 Z M 165.317 106.823 L 162.247 106.823 A 5.888 5.888 0 0 0 161.185 106.912 Q 160.583 107.023 160.107 107.27 A 3 3 0 0 0 159.531 107.656 A 2.699 2.699 0 0 0 158.645 109.186 A 4.098 4.098 0 0 0 158.559 110.048 A 2.572 2.572 0 0 0 158.728 111.002 Q 159.002 111.693 159.716 112.131 A 4.102 4.102 0 0 0 160.725 112.563 Q 161.676 112.838 163.012 112.84 A 13.2 13.2 0 0 0 163.033 112.84 A 17.219 17.219 0 0 0 164.715 112.764 Q 166.694 112.569 167.809 111.876 Q 169.36 110.912 169.36 109.261 Q 169.36 107.887 168.511 107.355 Q 167.662 106.823 165.317 106.823 Z M 159.948 95.713 A 5 5 0 0 0 160.05 96.761 Q 160.19 97.412 160.518 97.899 A 2.74 2.74 0 0 0 160.95 98.398 A 3.311 3.311 0 0 0 162.283 99.122 Q 162.932 99.309 163.743 99.309 A 5.58 5.58 0 0 0 165.204 99.134 Q 166.876 98.68 167.326 97.039 A 5.188 5.188 0 0 0 167.493 95.667 Q 167.493 92.643 165.103 92.018 A 5.571 5.571 0 0 0 163.697 91.856 A 5.374 5.374 0 0 0 162.602 91.961 Q 161.931 92.1 161.419 92.427 A 2.948 2.948 0 0 0 160.92 92.828 Q 160.095 93.653 159.97 95.156 A 6.738 6.738 0 0 0 159.948 95.713 Z M 150.032 85.246 A 2.838 2.838 0 0 0 149.995 85.715 A 3.024 3.024 0 0 0 150.009 86.004 Q 150.034 86.263 150.105 86.474 A 1.322 1.322 0 0 0 150.427 87.003 A 1.437 1.437 0 0 0 150.947 87.334 A 1.627 1.627 0 0 0 151.508 87.428 A 1.494 1.494 0 0 0 152.572 87.003 Q 153.02 86.579 153.02 85.715 A 2.93 2.93 0 0 0 153.007 85.437 Q 152.945 84.781 152.572 84.434 Q 152.125 84.018 151.508 84.018 A 1.955 1.955 0 0 0 151.378 84.022 A 1.481 1.481 0 0 0 150.427 84.427 A 1.198 1.198 0 0 0 150.163 84.803 Q 150.073 84.998 150.032 85.246 Z" id="right_labelLayer" stroke="#000000" fill="#000000" style="stroke:#000000;fill:#000000" vector-effect="non-scaling-stroke"/><path d="M 256 84 L 256 109 L 252 109 L 252 129 L 256 129 L 256 149 L 252 149 L 252 169 L 256 169 L 256 189 L 252 189 L 252 209 L 256 209 L 256 229 L 256 234 L 266 234 L 266 238 L 286 238 L 286 234 L 306 234 L 306 238 L 326 238 L 326 234 L 336 234 L 336 209 L 340 209 L 340 189 L 336 189 L 336 169 L 340 169 L 340 149 L 336 149 L 336 129 L 340 129 L 340 109 L 336 109 L 336 89 L 336 84 L 326 84 L 326 80 L 306 80 L 306 84 L 286 84 L 286 80 L 266 80 L 266 84 L 256 84 Z" id="bottom_outsideCutPath" stroke="#FF0000" stroke-width="0.1" style="stroke:#FF0000;stroke-width:0.1" vector-effect="non-scaling-stroke"/><path d="M 324.952 165.6 L 323.526 165.6 L 323.526 159.472 A 4.208 4.208 0 0 0 323.483 158.854 Q 323.436 158.538 323.337 158.283 A 1.724 1.724 0 0 0 323.044 157.784 Q 322.624 157.291 321.795 157.23 A 3.311 3.311 0 0 0 321.549 157.221 Q 320.217 157.221 319.581 157.986 Q 318.948 158.747 318.945 160.326 A 7.878 7.878 0 0 0 318.945 160.34 L 318.945 165.6 L 317.519 165.6 L 317.519 159.472 A 4.208 4.208 0 0 0 317.476 158.854 Q 317.429 158.538 317.33 158.283 A 1.724 1.724 0 0 0 317.037 157.784 A 1.496 1.496 0 0 0 316.349 157.336 Q 316.102 157.255 315.799 157.231 A 3.341 3.341 0 0 0 315.534 157.221 Q 314.193 157.221 313.57 158.024 Q 313.005 158.753 312.952 160.324 A 9.932 9.932 0 0 0 312.947 160.658 L 312.947 165.6 L 311.52 165.6 L 311.52 156.181 L 312.68 156.181 L 312.912 157.47 L 312.981 157.47 Q 313.385 156.783 314.12 156.396 A 3.387 3.387 0 0 1 315.458 156.021 A 4.091 4.091 0 0 1 315.766 156.009 A 4.671 4.671 0 0 1 316.817 156.119 Q 317.464 156.268 317.915 156.622 A 2.435 2.435 0 0 1 318.653 157.608 L 318.722 157.608 A 2.979 2.979 0 0 1 319.844 156.494 A 3.579 3.579 0 0 1 319.942 156.439 A 3.611 3.611 0 0 1 321.267 156.036 A 4.502 4.502 0 0 1 321.764 156.009 A 4.959 4.959 0 0 1 322.663 156.085 Q 323.163 156.178 323.554 156.382 A 2.351 2.351 0 0 1 324.157 156.83 A 2.457 2.457 0 0 1 324.685 157.693 Q 324.827 158.073 324.894 158.547 A 6.543 6.543 0 0 1 324.952 159.455 L 324.952 165.6 Z M 268.474 164.388 L 268.371 164.388 L 268.07 165.6 L 267.048 165.6 L 267.048 152.228 L 268.474 152.228 L 268.474 155.476 A 29.743 29.743 0 0 1 268.458 156.481 Q 268.441 156.988 268.405 157.436 L 268.474 157.436 Q 269.471 156.026 271.43 156.026 A 4.36 4.36 0 0 1 272.658 156.19 A 3.264 3.264 0 0 1 274.314 157.294 A 4.204 4.204 0 0 1 275.051 158.714 Q 275.341 159.649 275.341 160.882 A 8.364 8.364 0 0 1 275.23 162.289 Q 275.102 163.039 274.825 163.641 A 4.01 4.01 0 0 1 274.305 164.487 A 3.377 3.377 0 0 1 271.905 165.749 A 4.838 4.838 0 0 1 271.43 165.772 A 4.327 4.327 0 0 1 270.343 165.639 A 3.765 3.765 0 0 1 269.75 165.432 A 3.16 3.16 0 0 1 268.474 164.388 Z M 292.794 164.422 L 292.794 165.514 A 1.403 1.403 0 0 1 292.628 165.58 Q 292.421 165.648 292.111 165.699 A 6.183 6.183 0 0 1 291.708 165.751 Q 291.518 165.769 291.348 165.771 A 3.658 3.658 0 0 1 291.299 165.772 A 3.726 3.726 0 0 1 290.201 165.624 Q 288.994 165.251 288.678 163.94 A 4.484 4.484 0 0 1 288.566 162.893 L 288.566 157.29 L 287.217 157.29 L 287.217 156.602 L 288.566 156.009 L 289.168 153.998 L 289.993 153.998 L 289.993 156.181 L 292.726 156.181 L 292.726 157.29 L 289.993 157.29 L 289.993 162.833 A 2.873 2.873 0 0 0 290.034 163.337 Q 290.122 163.829 290.397 164.139 A 1.325 1.325 0 0 0 291.212 164.573 A 1.907 1.907 0 0 0 291.505 164.594 Q 291.884 164.594 292.236 164.538 Q 292.588 164.483 292.794 164.422 Z M 299.008 164.422 L 299.008 165.514 A 1.403 1.403 0 0 1 298.841 165.58 Q 298.635 165.648 298.325 165.699 A 6.183 6.183 0 0 1 297.921 165.751 Q 297.731 165.769 297.561 165.771 A 3.658 3.658 0 0 1 297.512 165.772 A 3.726 3.726 0 0 1 296.414 165.624 Q 295.207 165.251 294.892 163.94 A 4.484 4.484 0 0 1 294.78 162.893 L 294.78 157.29 L 293.43 157.29 L 293.43 156.602 L 294.78 156.009 L 295.381 153.998 L 296.206 153.998 L 296.206 156.181 L 298.939 156.181 L 298.939 157.29 L 296.206 157.29 L 296.206 162.833 A 2.873 2.873 0 0 0 296.248 163.337 Q 296.336 163.829 296.61 164.139 A 1.325 1.325 0 0 0 297.425 164.573 A 1.907 1.907 0 0 0 297.719 164.594 Q 298.097 164.594 298.449 164.538 Q 298.802 164.483 299.008 164.422 Z M 285.832 162.315 A 7.369 7.369 0 0 0 285.962 160.882 Q 285.962 159.966 285.768 159.205 A 4.442 4.442 0 0 0 284.798 157.324 A 3.735 3.735 0 0 0 283.064 156.206 A 4.794 4.794 0 0 0 281.657 156.009 A 5.541 5.541 0 0 0 280.662 156.095 A 3.773 3.773 0 0 0 278.46 157.294 A 3.941 3.941 0 0 0 277.976 157.965 Q 277.603 158.615 277.439 159.449 A 7.407 7.407 0 0 0 277.309 160.882 A 7.137 7.137 0 0 0 277.398 162.038 A 5.277 5.277 0 0 0 277.841 163.477 A 4.689 4.689 0 0 0 277.945 163.68 A 3.862 3.862 0 0 0 279.354 165.179 A 3.972 3.972 0 0 0 280.266 165.584 A 4.581 4.581 0 0 0 281.597 165.772 A 5.54 5.54 0 0 0 282.564 165.691 A 3.803 3.803 0 0 0 284.802 164.478 Q 285.573 163.619 285.832 162.315 Z M 308.889 162.315 A 7.369 7.369 0 0 0 309.019 160.882 Q 309.019 159.966 308.825 159.205 A 4.442 4.442 0 0 0 307.855 157.324 A 3.735 3.735 0 0 0 306.121 156.206 A 4.794 4.794 0 0 0 304.714 156.009 A 5.541 5.541 0 0 0 303.719 156.095 A 3.773 3.773 0 0 0 301.517 157.294 A 3.941 3.941 0 0 0 301.033 157.965 Q 300.66 158.615 300.496 159.449 A 7.407 7.407 0 0 0 300.366 160.882 A 7.137 7.137 0 0 0 300.455 162.038 A 5.277 5.277 0 0 0 300.898 163.477 A 4.689 4.689 0 0 0 301.002 163.68 A 3.862 3.862 0 0 0 302.411 165.179 A 3.972 3.972 0 0 0 303.323 165.584 A 4.581 4.581 0 0 0 304.654 165.772 A 5.54 5.54 0 0 0 305.621 165.691 A 3.803 3.803 0 0 0 307.859 164.478 Q 308.63 163.619 308.889 162.315 Z M 279.091 162.862 A 2.993 2.993 0 0 0 279.509 163.632 A 2.338 2.338 0 0 0 281.031 164.529 A 3.543 3.543 0 0 0 281.631 164.577 Q 283.032 164.577 283.758 163.636 A 3.062 3.062 0 0 0 284.235 162.707 Q 284.484 161.944 284.484 160.882 Q 284.484 159.73 284.186 158.933 A 2.937 2.937 0 0 0 283.758 158.153 A 2.347 2.347 0 0 0 282.299 157.283 A 3.598 3.598 0 0 0 281.614 157.221 A 3.395 3.395 0 0 0 280.769 157.32 A 2.272 2.272 0 0 0 279.5 158.14 Q 278.987 158.802 278.843 159.932 A 7.538 7.538 0 0 0 278.787 160.882 Q 278.787 162.053 279.091 162.862 Z M 302.148 162.862 A 2.993 2.993 0 0 0 302.566 163.632 A 2.338 2.338 0 0 0 304.088 164.529 A 3.543 3.543 0 0 0 304.688 164.577 Q 306.089 164.577 306.815 163.636 A 3.062 3.062 0 0 0 307.292 162.707 Q 307.541 161.944 307.541 160.882 Q 307.541 159.73 307.243 158.933 A 2.937 2.937 0 0 0 306.815 158.153 A 2.347 2.347 0 0 0 305.356 157.283 A 3.598 3.598 0 0 0 304.671 157.221 A 3.395 3.395 0 0 0 303.826 157.32 A 2.272 2.272 0 0 0 302.557 158.14 Q 302.044 158.802 301.9 159.932 A 7.538 7.538 0 0 0 301.844 160.882 Q 301.844 162.053 302.148 162.862 Z M 271.224 157.221 A 4.009 4.009 0 0 0 270.448 157.291 Q 270.006 157.378 269.67 157.575 A 1.897 1.897 0 0 0 269.119 158.059 Q 268.474 158.897 268.474 160.882 Q 268.474 162.867 269.136 163.722 Q 269.798 164.577 271.259 164.577 Q 272.573 164.577 273.218 163.619 A 3.275 3.275 0 0 0 273.623 162.742 Q 273.75 162.326 273.81 161.822 A 8.174 8.174 0 0 0 273.862 160.865 A 8.428 8.428 0 0 0 273.811 159.904 Q 273.681 158.772 273.218 158.123 Q 272.573 157.221 271.224 157.221 Z" id="bottom_labelLayer" stroke="#000000" fill="#000000" style="stroke:#000000;fill:#000000" vector-effect="non-scaling-stroke"/></g></svg>