<?xml version="1.0" encoding="UTF-8" standalone="no"?>
<svg
   width="340mm"
   height="399mm"
   viewBox="0 0 340 399"
   version="1.1"
   preserveAspectRatio="xMidYMid meet"
   id="svg9"
   sodipodi:docname="box_cut.svg"
   inkscape:version="1.2.2 (732a01da63, 2022-12-09)"
   xmlns:inkscape="http://www.inkscape.org/namespaces/inkscape"
   xmlns:sodipodi="http://sodipodi.sourceforge.net/DTD/sodipodi-0.dtd"
   xmlns="http://www.w3.org/2000/svg"
   xmlns:svg="http://www.w3.org/2000/svg">
  <defs
     id="defs13" />
  <sodipodi:namedview
     id="namedview11"
     pagecolor="#ffffff"
     bordercolor="#000000"
     borderopacity="0.25"
     inkscape:showpageshadow="2"
     inkscape:pageopacity="0.0"
     inkscape:pagecheckerboard="0"
     inkscape:deskcolor="#d1d1d1"
     inkscape:document-units="mm"
     showgrid="false"
     showguides="true"
     inkscape:zoom="8.7106935"
     inkscape:cx="523.72409"
     inkscape:cy="553.68726"
     inkscape:window-width="1920"
     inkscape:window-height="986"
     inkscape:window-x="-11"
     inkscape:window-y="1609"
     inkscape:window-maximized="1"
     inkscape:current-layer="svg9"
     inkscape:lockguides="true" />
  <g
     id="svgGroup"
     stroke-linecap="round"
     fill-rule="evenodd"
     font-size="9pt"
     stroke="#000"
     stroke-width="0.25mm"
     fill="none"
     style="stroke:#000;stroke-width:0.25mm;fill:none">
    <path
       d="M 0 201 L 0 230 L 4 230 L 4 250 L 0 250 L 0 270 L 4 270 L 4 290 L 0 290 L 0 310 L 4 310 L 4 330 L 0 330 L 0 350 L 4 350 L 4 370 L 0 370 L 0 390 L 0 399 L 14 399 L 14 395 L 34 395 L 34 399 L 54 399 L 54 395 L 74 395 L 74 399 L 88 399 L 88 370 L 84 370 L 84 350 L 88 350 L 88 330 L 84 330 L 84 310 L 88 310 L 88 290 L 84 290 L 84 270 L 88 270 L 88 250 L 84 250 L 84 230 L 88 230 L 88 210 L 88 201 L 74 201 L 74 205 L 54 205 L 54 201 L 34 201 L 34 205 L 14 205 L 14 201 L 0 201 Z"
       id="front_outsideCutPath"
       stroke="#000000"
       stroke-width="0.1"
       style="stroke:#000000;stroke-width:1.1"
       vector-effect="non-scaling-stroke" />
    <path
       d="M 95 201 L 95 230 L 91 230 L 91 250 L 95 250 L 95 270 L 91 270 L 91 290 L 95 290 L 95 310 L 91 310 L 91 330 L 95 330 L 95 350 L 91 350 L 91 370 L 95 370 L 95 390 L 95 399 L 120 399 L 120 395 L 140 395 L 140 399 L 160 399 L 160 395 L 180 395 L 180 399 L 200 399 L 200 395 L 220 395 L 220 399 L 240 399 L 245 399 L 245 370 L 249 370 L 249 350 L 245 350 L 245 330 L 249 330 L 249 310 L 245 310 L 245 290 L 249 290 L 249 270 L 245 270 L 245 250 L 249 250 L 249 230 L 245 230 L 245 210 L 245 201 L 220 201 L 220 205 L 200 205 L 200 201 L 180 201 L 180 205 L 160 205 L 160 201 L 140 201 L 140 205 L 120 205 L 120 201 L 100 201 L 95 201 Z"
       id="left_outsideCutPath"
       stroke="#000000"
       stroke-width="0.1"
       style="stroke:#000000;stroke-width:1.1"
       vector-effect="non-scaling-stroke" />
    <path
       d="M 256 245 L 256 270 L 252 270 L 252 290 L 256 290 L 256 310 L 252 310 L 252 330 L 256 330 L 256 350 L 252 350 L 252 370 L 256 370 L 256 390 L 256 395 L 266 395 L 266 399 L 286 399 L 286 395 L 306 395 L 306 399 L 326 399 L 326 395 L 336 395 L 336 370 L 340 370 L 340 350 L 336 350 L 336 330 L 340 330 L 340 310 L 336 310 L 336 290 L 340 290 L 340 270 L 336 270 L 336 250 L 336 245 L 326 245 L 326 241 L 306 241 L 306 245 L 286 245 L 286 241 L 266 241 L 266 245 L 256 245 Z"
       id="top_outsideCutPath"
       stroke="#000000"
       stroke-width="0.1"
       style="stroke:#000000;stroke-width:1.1"
       vector-effect="non-scaling-stroke" />
    <path
       d="M 0 0 L 0 29 L 4 29 L 4 49 L 0 49 L 0 69 L 4 69 L 4 89 L 0 89 L 0 109 L 4 109 L 4 129 L 0 129 L 0 149 L 4 149 L 4 169 L 0 169 L 0 189 L 0 198 L 14 198 L 14 194 L 34 194 L 34 198 L 54 198 L 54 194 L 74 194 L 74 198 L 88 198 L 88 169 L 84 169 L 84 149 L 88 149 L 88 129 L 84 129 L 84 109 L 88 109 L 88 89 L 84 89 L 84 69 L 88 69 L 88 49 L 84 49 L 84 29 L 88 29 L 88 9 L 88 0 L 74 0 L 74 4 L 54 4 L 54 0 L 34 0 L 34 4 L 14 4 L 14 0 L 0 0 Z"
       id="back_outsideCutPath"
       stroke="#000000"
       stroke-width="0.1"
       style="stroke:#000000;stroke-width:1.1"
       vector-effect="non-scaling-stroke" />
    <path
       d="M 95 0 L 95 29 L 91 29 L 91 49 L 95 49 L 95 69 L 91 69 L 91 89 L 95 89 L 95 109 L 91 109 L 91 129 L 95 129 L 95 149 L 91 149 L 91 169 L 95 169 L 95 189 L 95 198 L 120 198 L 120 194 L 140 194 L 140 198 L 160 198 L 160 194 L 180 194 L 180 198 L 200 198 L 200 194 L 220 194 L 220 198 L 240 198 L 245 198 L 245 169 L 249 169 L 249 149 L 245 149 L 245 129 L 249 129 L 249 109 L 245 109 L 245 89 L 249 89 L 249 69 L 245 69 L 245 49 L 249 49 L 249 29 L 245 29 L 245 9 L 245 0 L 220 0 L 220 4 L 200 4 L 200 0 L 180 0 L 180 4 L 160 4 L 160 0 L 140 0 L 140 4 L 120 4 L 120 0 L 100 0 L 95 0 Z"
       id="right_outsideCutPath"
       stroke="#000000"
       stroke-width="0.1"
       style="stroke:#000000;stroke-width:1.1"
       vector-effect="non-scaling-stroke" />
    <path
       d="M 256 84 L 256 109 L 252 109 L 252 129 L 256 129 L 256 149 L 252 149 L 252 169 L 256 169 L 256 189 L 252 189 L 252 209 L 256 209 L 256 229 L 256 234 L 266 234 L 266 238 L 286 238 L 286 234 L 306 234 L 306 238 L 326 238 L 326 234 L 336 234 L 336 209 L 340 209 L 340 189 L 336 189 L 336 169 L 340 169 L 340 149 L 336 149 L 336 129 L 340 129 L 340 109 L 336 109 L 336 89 L 336 84 L 326 84 L 326 80 L 306 80 L 306 84 L 286 84 L 286 80 L 266 80 L 266 84 L 256 84 Z"
       id="bottom_outsideCutPath"
       stroke="#000000"
       stroke-width="1.1"
       style="stroke:#000000;stroke-width:1.1"
       vector-effect="non-scaling-stroke" />
  </g>
  <circle
     style="fill:none;stroke:#000000;stroke-width:0.0649999;stroke-opacity:0.707989"
     id="path3852"
     cx="17.82078"
     cy="224.45619"
     r="2.2981508" />
  <circle
     style="fill:none;stroke:#000000;stroke-width:0.0649999;stroke-opacity:0.707989"
     id="circle3854"
     cx="69.953247"
     cy="224.57033"
     r="2.2981508" />
  <circle
     style="fill:none;stroke:#000000;stroke-width:0.0649999;stroke-opacity:0.707989"
     id="circle3856"
     cx="18.119312"
     cy="327.26785"
     r="2.2981508" />
  <circle
     style="fill:none;stroke:#000000;stroke-width:0.0649999;stroke-opacity:0.707989"
     id="circle3858"
     cx="69.887291"
     cy="327.29083"
     r="2.2981508" />
  <rect
     style="fill:none;stroke:#000000;stroke-width:0.0656018;stroke-opacity:0.707989"
     id="rect5414"
     width="46.715446"
     height="108.04314"
     x="20.685366"
     y="221.64334" />
  <circle
     style="fill:none;stroke:#000000;stroke-width:0.0649999;stroke-opacity:0.707989"
     id="path355"
     cx="55.993267"
     cy="86.964607"
     r="1.9974582" />
  <circle
     style="fill:none;stroke:#000000;stroke-width:0.0649999;stroke-opacity:0.707989"
     id="circle357"
     cx="32.023766"
     cy="87.136436"
     r="1.9974582" />
  <circle
     style="fill:none;stroke:#000000;stroke-width:0.0649999;stroke-opacity:0.707989"
     id="circle359"
     cx="31.851944"
     cy="23.088902"
     r="1.9974582" />
  <circle
     style="fill:none;stroke:#000000;stroke-width:0.0649999;stroke-opacity:0.707989"
     id="circle361"
     cx="55.821445"
     cy="23.0889"
     r="1.9974582" />
  <path
     style="fill:none;stroke:#000000;stroke-width:0.0649999;stroke-opacity:0.707989"
     d="m 28.007371,26.246171 7.775053,0.04296 -0.08591,-6.357501 17.215943,0.09279 v 6.219188 l 7.062081,-0.03037 0.0029,57.647798 H 52.9219 v 6.174938 L 35.739472,90.025224 V 83.882501 L 28.02052,83.8793 Z"
     id="path438" />
  <rect
     style="fill:none;stroke:#000000;stroke-width:0.0649999;stroke-opacity:0.707989"
     id="rect407"
     width="80.067291"
     height="60.020096"
     x="105.09592"
     y="123.01691" />
  <path
     style="color:#000000;font-size:2.11667px;fill:#000000;fill-opacity:0.707989;stroke:none;stroke-width:0.0649999;stroke-opacity:1;-inkscape-stroke:none"
     d="m 132.84961,141.18945 v 1.60352 h 0.42187 c 0.14273,0 0.25784,-0.009 0.34766,-0.0293 0.09,-0.02 0.17256,-0.0542 0.24609,-0.0996 0.10633,-0.0658 0.19094,-0.15726 0.25391,-0.27539 0.0505,-0.0935 0.0655,-0.20254 0.0762,-0.3125 l 0.0195,0.0332 v -0.11718 c 0,-0.006 -0.004,-0.01 -0.004,-0.0156 -0.002,-0.14634 -0.0288,-0.27684 -0.0879,-0.38672 -0.0611,-0.11357 -0.14658,-0.20512 -0.25586,-0.27343 -0.065,-0.0402 -0.1429,-0.0718 -0.23438,-0.0937 -0.0924,-0.0231 -0.21343,-0.0332 -0.36523,-0.0332 z m 0.0664,0.0645 h 0.35156 c 0.14861,0 0.26562,0.0102 0.34961,0.0312 0.0863,0.0207 0.15717,0.0503 0.21484,0.0859 0.10017,0.0626 0.17835,0.14587 0.23438,0.25 0.0557,0.1034 0.084,0.22583 0.084,0.3711 0,0.13512 -0.0292,0.25645 -0.0879,0.36523 -0.0582,0.10924 -0.13611,0.19235 -0.23242,0.25195 -0.067,0.0414 -0.14101,0.0712 -0.22461,0.0898 -0.0824,0.0184 -0.19422,0.0293 -0.33399,0.0293 h -0.35546 z"
     id="path465"
     sodipodi:nodetypes="ccscccccscscccccscccscccscc" />
  <path
     style="color:#000000;font-size:2.11667px;fill:#000000;fill-opacity:0.707989;stroke:none;stroke-width:0.0649999;stroke-opacity:1;-inkscape-stroke:none"
     d="m 134.45508,141.17773 v 0.26758 h 0.28515 v -0.0332 -0.23438 z m 0.0644,0.0664 h 0.1543 v 0.13672 h -0.1543 z m -0.0527,0.33008 v 1.21875 h 0.25976 v -0.0332 -1.18555 z m 0.0664,0.0644 h 0.12891 v 1.08985 h -0.12891 z"
     id="path467" />
  <path
     style="color:#000000;font-size:2.11667px;fill:#000000;fill-opacity:0.707989;stroke:none;stroke-width:0.0649999;stroke-opacity:1;-inkscape-stroke:none"
     d="m 135.55859,141.54102 c -0.17526,0 -0.32229,0.0604 -0.43164,0.17773 -0.10891,0.11768 -0.16211,0.27602 -0.16211,0.4707 0,0.19696 0.0573,0.35585 0.17188,0.4668 0.11444,0.11004 0.27331,0.16406 0.4707,0.16406 0.0778,0 0.15152,-0.01 0.22266,-0.0293 0.0696,-0.019 0.1383,-0.0422 0.20508,-0.0703 l 0.0195,-0.01 v -0.26563 H 136 l -0.01,0.008 c -0.0284,0.0256 -0.0821,0.057 -0.16015,0.0879 -0.0759,0.0297 -0.15034,0.0449 -0.22461,0.0449 -0.0563,0 -0.10838,-0.008 -0.1543,-0.0234 -0.045,-0.0152 -0.0829,-0.0385 -0.11523,-0.0684 -0.0333,-0.0302 -0.0603,-0.0686 -0.0801,-0.11719 h 0.002 c -0.0157,-0.0392 -0.0223,-0.0889 -0.0254,-0.14062 h 0.8457 v -0.0332 -0.10546 c 0,-0.17292 -0.0452,-0.31194 -0.13671,-0.41016 -0.0908,-0.0983 -0.22077,-0.14648 -0.38282,-0.14648 z m 0,0.0644 c 0.1494,0 0.25867,0.0433 0.33594,0.12695 0.078,0.0837 0.11914,0.20329 0.11914,0.36524 v 0.0723 h -0.85156 v 0.0332 c 0,0.0742 0.0119,0.14152 0.0352,0.19922 0.0229,0.0563 0.0545,0.10335 0.0957,0.14063 0.0392,0.0362 0.0858,0.0622 0.13867,0.0801 0.0533,0.0178 0.11154,0.0273 0.17383,0.0273 0.0828,0 0.16541,-0.0165 0.24805,-0.0488 0.0623,-0.0247 0.0995,-0.0505 0.13671,-0.0762 v 0.14258 c -0.0579,0.0234 -0.11574,0.0442 -0.17578,0.0606 -0.0653,0.0178 -0.13461,0.0254 -0.20703,0.0254 -0.1857,0 -0.32524,-0.0479 -0.42578,-0.14454 -0.10035,-0.0971 -0.15234,-0.23516 -0.15234,-0.41992 0,-0.1829 0.0501,-0.32354 0.14648,-0.42773 0.0974,-0.1045 0.22184,-0.15625 0.38281,-0.15625 z"
     id="path469"
     sodipodi:nodetypes="ccscscccccccscccccccscccccsccscccscccsscsccc" />
  <path
     style="color:#000000;font-size:2.11667px;fill:#000000;fill-opacity:0.707989;stroke:none;stroke-width:0.0649999;stroke-opacity:1;-inkscape-stroke:none"
     d="m 136.73437,141.54492 c -0.0766,0 -0.1473,0.0108 -0.21093,0.0312 -0.0625,0.0196 -0.11568,0.0463 -0.15821,0.082 -0.0431,0.0357 -0.0755,0.0765 -0.0976,0.12305 v 0.002 c -0.0212,0.0463 -0.0332,0.0946 -0.0332,0.14649 0,0.0818 0.0235,0.15453 0.0703,0.21289 0.049,0.0593 0.12919,0.101 0.23437,0.1289 0.0375,0.01 0.0783,0.019 0.12305,0.0274 0.0446,0.008 0.0804,0.0156 0.10742,0.0215 0.072,0.016 0.11713,0.037 0.13477,0.0527 0.0184,0.0165 0.0293,0.0409 0.0293,0.0801 0,0.0505 -0.0171,0.079 -0.0566,0.10157 -0.0411,0.0234 -0.10165,0.0371 -0.18359,0.0371 -0.0647,0 -0.13295,-0.0133 -0.20508,-0.0391 -0.0723,-0.0265 -0.13659,-0.0612 -0.19531,-0.10546 l -0.01,-0.006 h -0.0527 v 0.26953 l 0.0176,0.01 c 0.0506,0.0253 0.11125,0.0473 0.18359,0.0684 0.0749,0.0209 0.15812,0.0312 0.24609,0.0312 0.15575,0 0.28098,-0.0343 0.375,-0.10742 0.094,-0.0725 0.14454,-0.17074 0.14454,-0.28516 v -0.0215 l -0.01,-0.004 c -0.006,-0.0774 -0.0234,-0.14831 -0.0723,-0.19922 -0.054,-0.0555 -0.13089,-0.0954 -0.22461,-0.11718 h -0.002 c -0.0301,-0.007 -0.0669,-0.0133 -0.11133,-0.0215 -0.0437,-0.008 -0.0838,-0.0172 -0.11914,-0.0254 -0.0621,-0.0145 -0.10461,-0.0341 -0.12695,-0.0527 -0.0215,-0.0175 -0.0332,-0.0413 -0.0332,-0.082 0,-0.0439 0.0157,-0.0693 0.0566,-0.0918 0.0431,-0.0242 0.0973,-0.0371 0.16406,-0.0371 0.0642,0 0.12941,0.0108 0.19727,0.0352 h 0.002 c 0.0685,0.0239 0.12541,0.0537 0.17187,0.0879 l 0.008,0.006 h 0.0547 v -0.25977 l -0.0176,-0.008 c -0.0501,-0.0258 -0.11272,-0.0475 -0.18555,-0.0644 -0.0727,-0.0178 -0.14323,-0.0274 -0.21485,-0.0274 z m 0,0.0664 c 0.0662,0 0.13133,0.007 0.19922,0.0234 h 0.002 c 0.0619,0.0144 0.10892,0.0331 0.15039,0.0527 v 0.13672 c -0.0445,-0.0277 -0.0897,-0.0544 -0.14649,-0.0742 -0.0741,-0.0266 -0.14845,-0.041 -0.2207,-0.041 -0.0752,0 -0.14054,0.0161 -0.19531,0.0469 -0.057,0.0313 -0.0898,0.0848 -0.0898,0.14844 0,0.0543 0.0189,0.10208 0.0566,0.13281 0.0355,0.0296 0.0849,0.0506 0.15235,0.0664 0.0364,0.008 0.0786,0.0151 0.12304,0.0234 0.0445,0.008 0.0805,0.0167 0.10938,0.0234 0.0859,0.0197 0.14985,0.0529 0.19336,0.0977 0.0428,0.0446 0.0644,0.10195 0.0644,0.17968 0,0.0964 -0.0381,0.17186 -0.11914,0.23438 -0.0796,0.0619 -0.18989,0.0937 -0.33594,0.0937 -0.0822,0 -0.15858,-0.0105 -0.22656,-0.0293 h -0.002 c -0.0618,-0.0181 -0.11134,-0.0384 -0.1543,-0.0586 v -0.14844 c 0.0539,0.0359 0.10885,0.0707 0.17188,0.0937 0.0781,0.0279 0.15343,0.043 0.22656,0.043 0.0889,0 0.16139,-0.0133 0.2168,-0.0449 0.057,-0.0325 0.0879,-0.0901 0.0879,-0.15821 0,-0.0517 -0.0148,-0.0985 -0.0488,-0.1289 -0.0348,-0.031 -0.0892,-0.0494 -0.16602,-0.0664 -0.028,-0.006 -0.0644,-0.013 -0.10937,-0.0215 -0.0434,-0.008 -0.0835,-0.0179 -0.11914,-0.0274 -0.0974,-0.0258 -0.16278,-0.0633 -0.19922,-0.10742 -0.0373,-0.0464 -0.0547,-0.10213 -0.0547,-0.17187 0,-0.0431 0.008,-0.0813 0.0254,-0.11914 0.0178,-0.0374 0.0433,-0.0711 0.0801,-0.10157 0.0347,-0.0291 0.0807,-0.0527 0.13672,-0.0703 0.0562,-0.0181 0.1205,-0.0273 0.1914,-0.0273 z"
     id="path471" />
  <path
     style="color:#000000;font-size:2.11667px;fill:#000000;fill-opacity:0.707989;stroke:none;stroke-width:0.0649999;stroke-opacity:1;-inkscape-stroke:none"
     d="m 137.92187,141.54102 c -0.17526,0 -0.32229,0.0604 -0.43164,0.17773 -0.1089,0.11768 -0.16211,0.27602 -0.16211,0.4707 0,0.19696 0.0573,0.35585 0.17188,0.4668 0.11444,0.11004 0.27331,0.16406 0.4707,0.16406 0.0778,0 0.15153,-0.01 0.22266,-0.0293 0.0696,-0.019 0.1383,-0.0422 0.20508,-0.0703 l 0.0195,-0.01 v -0.26563 h -0.0547 l -0.01,0.008 c -0.0285,0.0256 -0.0821,0.057 -0.16016,0.0879 -0.0758,0.0297 -0.15033,0.0449 -0.22461,0.0449 -0.0562,0 -0.10643,-0.008 -0.15234,-0.0234 -0.045,-0.0152 -0.0829,-0.0385 -0.11524,-0.0684 h -0.002 c -0.0333,-0.0302 -0.0584,-0.0686 -0.0781,-0.11719 -0.0157,-0.0391 -0.0203,-0.0889 -0.0234,-0.14062 h 0.84375 v -0.0332 -0.10546 c 0,-0.17292 -0.0452,-0.31194 -0.13672,-0.41016 -0.0908,-0.0974 -0.22149,-0.14648 -0.38282,-0.14648 z m 0,0.0644 c 0.1494,0 0.25867,0.0433 0.33594,0.12695 0.078,0.0837 0.11914,0.20329 0.11914,0.36524 v 0.0723 h -0.85156 v 0.0332 c 0,0.0742 0.012,0.14152 0.0352,0.19922 0.0229,0.0563 0.0545,0.10335 0.0957,0.14063 0.0392,0.0362 0.0858,0.0622 0.13867,0.0801 0.0533,0.0178 0.11155,0.0273 0.17383,0.0273 0.0828,0 0.16542,-0.0165 0.24805,-0.0488 0.0614,-0.0243 0.0997,-0.049 0.13672,-0.0742 v 0.14063 c -0.0579,0.0234 -0.11575,0.0442 -0.17579,0.0606 -0.0653,0.0178 -0.13461,0.0254 -0.20703,0.0254 -0.1857,0 -0.32524,-0.0479 -0.42578,-0.14454 -0.10035,-0.0971 -0.15234,-0.23516 -0.15234,-0.41992 0,-0.1829 0.0501,-0.32354 0.14648,-0.42773 0.0974,-0.1045 0.22184,-0.15625 0.38281,-0.15625 z"
     id="path473"
     sodipodi:nodetypes="ccscscccccccscccccccssccccsccscccscccsscsccc" />
  <path
     style="color:#000000;font-size:2.11667px;fill:#000000;fill-opacity:0.707989;stroke:none;stroke-width:0.0649999;stroke-opacity:1;-inkscape-stroke:none"
     d="m 139.09766,141.54492 c -0.0766,0 -0.14731,0.0108 -0.21094,0.0312 -0.0625,0.0196 -0.11568,0.0463 -0.1582,0.082 -0.0431,0.0357 -0.0755,0.0765 -0.0977,0.12305 v 0.002 c -0.0212,0.0463 -0.0312,0.0946 -0.0312,0.14649 0,0.0818 0.0216,0.15452 0.0684,0.21289 h 0.002 c 0.049,0.0593 0.12724,0.101 0.23242,0.1289 0.0375,0.01 0.0783,0.019 0.12305,0.0274 0.0446,0.008 0.0804,0.0156 0.10742,0.0215 0.072,0.016 0.11908,0.037 0.13672,0.0527 0.0184,0.0165 0.0273,0.0409 0.0273,0.0801 1e-5,0.0505 -0.0152,0.079 -0.0547,0.10157 -0.0411,0.0234 -0.1036,0.0371 -0.18555,0.0371 -0.0647,0 -0.13294,-0.0133 -0.20508,-0.0391 -0.0723,-0.0265 -0.13659,-0.0612 -0.19531,-0.10546 l -0.01,-0.006 h -0.0527 v 0.26953 l 0.0176,0.01 c 0.0506,0.0253 0.11126,0.0473 0.18359,0.0684 h 0.002 c 0.0749,0.0209 0.15618,0.0312 0.24415,0.0312 0.155,0 0.28112,-0.035 0.375,-0.10742 0.094,-0.0725 0.14453,-0.17074 0.14453,-0.28516 v -0.0215 l -0.01,-0.004 c -0.006,-0.0774 -0.0234,-0.14831 -0.0723,-0.19922 -0.0543,-0.0559 -0.13001,-0.0955 -0.22461,-0.11718 -0.0303,-0.007 -0.0682,-0.0132 -0.11329,-0.0215 -0.0438,-0.008 -0.0839,-0.0172 -0.11914,-0.0254 -0.0621,-0.0145 -0.10461,-0.0341 -0.12695,-0.0527 -0.0215,-0.0175 -0.0332,-0.0413 -0.0332,-0.082 0,-0.0439 0.0157,-0.0693 0.0566,-0.0918 0.0431,-0.0242 0.0973,-0.0371 0.16406,-0.0371 0.0642,0 0.13137,0.0108 0.19922,0.0352 0.0685,0.0239 0.12541,0.0537 0.17187,0.0879 l 0.008,0.006 h 0.0547 v -0.25977 l -0.0176,-0.008 c -0.0496,-0.0256 -0.11166,-0.0476 -0.1836,-0.0644 h -0.002 c -0.072,-0.0175 -0.14387,-0.0274 -0.21484,-0.0274 z m 0,0.0664 c 0.0662,0 0.13327,0.007 0.20117,0.0234 0.062,0.0144 0.11085,0.0331 0.15234,0.0527 v 0.13672 c -0.0448,-0.0281 -0.091,-0.0542 -0.14844,-0.0742 -0.0741,-0.0266 -0.14844,-0.041 -0.2207,-0.041 -0.0752,0 -0.14053,0.0161 -0.19531,0.0469 -0.057,0.0313 -0.0898,0.0848 -0.0898,0.14844 0,0.0543 0.0189,0.10208 0.0566,0.13281 0.0355,0.0296 0.0868,0.0506 0.15429,0.0664 0.0363,0.008 0.0766,0.0151 0.1211,0.0234 0.0445,0.008 0.0805,0.0167 0.10937,0.0234 0.0859,0.0197 0.14985,0.0529 0.19336,0.0977 0.0428,0.0446 0.0645,0.10195 0.0645,0.17968 0,0.0964 -0.0381,0.17186 -0.11914,0.23438 -0.0796,0.0619 -0.18988,0.0937 -0.33593,0.0937 -0.0829,0 -0.15813,-0.0102 -0.22657,-0.0293 -0.0626,-0.0182 -0.11282,-0.0381 -0.15625,-0.0586 v -0.14844 c 0.0539,0.0359 0.10886,0.0707 0.17188,0.0937 0.0781,0.0279 0.15344,0.043 0.22656,0.043 0.0889,0 0.16139,-0.0133 0.2168,-0.0449 0.0569,-0.0325 0.0879,-0.0901 0.0879,-0.15821 0,-0.0517 -0.0148,-0.0985 -0.0488,-0.1289 -0.0348,-0.031 -0.0892,-0.0494 -0.16602,-0.0664 -0.028,-0.006 -0.0644,-0.013 -0.10937,-0.0215 -0.0434,-0.008 -0.0835,-0.0179 -0.11914,-0.0274 -0.0974,-0.0258 -0.16277,-0.0633 -0.19922,-0.10742 -0.0372,-0.0464 -0.0547,-0.10212 -0.0547,-0.17187 0,-0.0431 0.008,-0.0813 0.0254,-0.11914 0.0178,-0.0374 0.0453,-0.0711 0.082,-0.10157 0.0347,-0.0291 0.0788,-0.0527 0.13477,-0.0703 0.0562,-0.0181 0.1205,-0.0273 0.19141,-0.0273 z"
     id="path475" />
  <path
     style="color:#000000;font-size:2.11667px;fill:#000000;fill-opacity:0.707989;stroke:none;stroke-width:0.0649999;stroke-opacity:1;-inkscape-stroke:none"
     d="m 140.32617,141.18945 v 0.2461 h 0.55078 v 1.35742 h 0.26953 v -1.35742 h 0.54883 v -0.0332 -0.21289 z m 0.0664,0.0645 h 1.23828 v 0.11718 h -0.54883 v 1.35743 h -0.14062 v -1.35743 h -0.54883 z"
     id="path477" />
  <path
     style="color:#000000;font-size:2.11667px;fill:#000000;fill-opacity:0.707989;stroke:none;stroke-width:0.0649999;stroke-opacity:1;-inkscape-stroke:none"
     d="m 142.10742,141.54102 c -0.17527,0 -0.32229,0.0604 -0.43164,0.17773 -0.10891,0.11768 -0.16211,0.27602 -0.16211,0.4707 0,0.19696 0.0553,0.35585 0.16992,0.4668 0.11444,0.11004 0.27527,0.16406 0.47266,0.16406 0.0778,0 0.15152,-0.01 0.22266,-0.0293 0.0696,-0.019 0.1383,-0.0422 0.20507,-0.0703 l 0.0195,-0.01 v -0.26563 h -0.0547 l -0.01,0.008 c -0.0285,0.0256 -0.0821,0.057 -0.16015,0.0879 -0.0759,0.0297 -0.15034,0.0449 -0.22461,0.0449 -0.0563,0 -0.10838,-0.008 -0.1543,-0.0234 -0.045,-0.0152 -0.0829,-0.0385 -0.11523,-0.0684 -0.0333,-0.0302 -0.0603,-0.0686 -0.0801,-0.11719 -0.0157,-0.0391 -0.0203,-0.0889 -0.0234,-0.14062 h 0.8457 v -0.0332 -0.10546 c 0,-0.17292 -0.0452,-0.31194 -0.13672,-0.41016 -0.0908,-0.0983 -0.22076,-0.14648 -0.38281,-0.14648 z m 0,0.0644 c 0.14939,0 0.25867,0.0433 0.33594,0.12695 0.078,0.0837 0.11719,0.20329 0.11719,0.36524 v 0.0723 h -0.84961 v 0.0332 c 0,0.0742 0.01,0.14152 0.0332,0.19922 0.0229,0.0563 0.0565,0.10335 0.0977,0.14063 0.0392,0.0362 0.0858,0.0622 0.13867,0.0801 0.0533,0.0178 0.11154,0.0273 0.17383,0.0273 0.0828,0 0.16541,-0.0165 0.24804,-0.0488 0.0623,-0.0247 0.0995,-0.0505 0.13672,-0.0762 v 0.14063 c -0.0581,0.0236 -0.11743,0.0461 -0.17773,0.0625 -0.0653,0.0178 -0.13266,0.0254 -0.20508,0.0254 -0.1857,0 -0.3272,-0.0479 -0.42773,-0.14454 -0.10036,-0.0971 -0.15039,-0.23516 -0.1504,-0.41992 0,-0.1829 0.0481,-0.32354 0.14454,-0.42773 0.0974,-0.1045 0.22379,-0.15625 0.38476,-0.15625 z"
     id="path479"
     sodipodi:nodetypes="ccscscccccccsccccccscccccsccscccscccsscsccc" />
  <path
     style="color:#000000;font-size:2.11667px;fill:#000000;fill-opacity:0.707989;stroke:none;stroke-width:0.0649999;stroke-opacity:1;-inkscape-stroke:none"
     d="m 142.8457,141.17773 v 0.26758 h 0.28321 v -0.0332 -0.23438 z m 0.0645,0.0664 h 0.15429 v 0.13672 h -0.15429 z m -0.0527,0.33008 v 1.21875 h 0.25977 v -0.0332 -1.18555 z m 0.0664,0.0644 h 0.1289 v 1.08985 h -0.1289 z"
     id="path481" />
  <path
     style="color:#000000;font-size:2.11667px;fill:#000000;fill-opacity:0.707989;stroke:none;stroke-width:0.0649999;stroke-opacity:1;-inkscape-stroke:none"
     d="m 143.43945,141.11914 v 1.67383 h 0.25782 v -0.0332 -1.64063 z m 0.0645,0.0664 h 0.1289 v 1.54297 h -0.1289 z"
     id="path483" />
  <path
     style="color:#000000;font-size:2.11667px;fill:#000000;fill-opacity:0.707989;stroke:none;stroke-width:0.0649999;stroke-opacity:1;-inkscape-stroke:none"
     d="m 132.72266,144.21875 0.32031,1.2207 h 0.22851 l 0.27149,-0.82031 0.27148,0.82031 h 0.22852 l 0.31836,-1.2207 h -0.043 -0.2207 l -0.17969,0.80469 -0.26758,-0.80469 h -0.20703 l -0.25977,0.80664 -0.1914,-0.80664 z m 0.0859,0.0664 h 0.13282 l 0.23242,0.98046 0.31836,-0.98046 h 0.11133 l 0.32617,0.98242 0.2207,-0.98242 h 0.12695 l -0.2832,1.08789 h -0.13281 l -0.32031,-0.95899 -0.31641,0.95899 h -0.13086 z"
     id="path485" />
  <path
     style="color:#000000;font-size:2.11667px;fill:#000000;fill-opacity:0.707989;stroke:none;stroke-width:0.0649999;stroke-opacity:1;-inkscape-stroke:none"
     d="m 134.55664,143.82422 v 0.26758 h 0.2832 v -0.0332 -0.23437 z m 0.0645,0.0644 h 0.1543 v 0.13672 h -0.1543 z m -0.0527,0.33008 v 1.2207 h 0.25976 v -0.0332 -1.1875 z m 0.0664,0.0664 h 0.1289 v 1.08789 h -0.1289 z"
     id="path487" />
  <path
     style="color:#000000;font-size:2.11667px;fill:#000000;fill-opacity:0.707989;stroke:none;stroke-width:0.0649999;stroke-opacity:1;-inkscape-stroke:none"
     d="m 135.14844,144.21875 v 1.2207 h 0.25781 v -0.83593 c 0.0462,-0.0362 0.0934,-0.0668 0.14258,-0.0899 h 0.002 c 0.0517,-0.0249 0.10313,-0.0371 0.1582,-0.0371 0.0362,0 0.0668,8e-4 0.0918,0.004 h 0.002 c 0.026,0.003 0.0524,0.009 0.0801,0.0156 h 0.004 0.0469 v -0.0332 -0.22656 l -0.0273,-0.004 c -0.0307,-0.005 -0.0538,-0.008 -0.0703,-0.01 -0.0183,-0.002 -0.0418,-0.004 -0.0762,-0.004 -0.066,0 -0.13226,0.0151 -0.19532,0.043 -0.047,0.0205 -0.10239,0.0608 -0.1582,0.10156 v -0.14453 z m 0.0644,0.0664 h 0.12891 v 0.20507 l 0.0527,-0.043 c 0.0757,-0.0609 0.14275,-0.10321 0.19727,-0.12696 0.0555,-0.0245 0.11128,-0.0352 0.16797,-0.0352 0.0331,0 0.0562,3.6e-4 0.0684,0.002 h 0.002 c 0.008,7.1e-4 0.0252,0.004 0.0391,0.006 l -0.002,0.13281 c -0.0188,-0.004 -0.0383,-0.008 -0.0566,-0.01 h -0.002 c -0.0283,-0.003 -0.0622,-0.004 -0.0996,-0.004 -0.0648,0 -0.12757,0.0141 -0.1875,0.043 -0.0583,0.0274 -0.1144,0.0619 -0.16796,0.10547 l -0.0117,0.01 v 0.80274 h -0.12891 z"
     id="path489" />
  <path
     style="color:#000000;font-size:2.11667px;fill:#000000;fill-opacity:0.707989;stroke:none;stroke-width:0.0649999;stroke-opacity:1;-inkscape-stroke:none"
     d="M 136.79297,143.76562 V 144.25 c -0.0363,-0.0162 -0.0729,-0.0338 -0.10742,-0.043 v 0.002 c -0.0504,-0.014 -0.10699,-0.0215 -0.16993,-0.0215 -0.0713,0 -0.14046,0.0137 -0.20703,0.043 -0.0662,0.0294 -0.1241,0.0733 -0.17382,0.1289 -0.0505,0.0571 -0.0897,0.12537 -0.11915,0.20508 -0.029,0.0806 -0.0449,0.17255 -0.0449,0.27344 0,0.19274 0.0427,0.34746 0.12891,0.46094 0.0867,0.11314 0.20737,0.17187 0.35351,0.17187 0.0751,0 0.14604,-0.0142 0.21094,-0.043 0.0448,-0.0198 0.087,-0.0514 0.12891,-0.082 v 0.0937 h 0.25976 v -0.0332 -1.64063 z m 0.0644,0.0645 h 0.13086 v 1.54297 h -0.13086 v -0.15821 l -0.0527,0.0449 c -0.0537,0.0464 -0.10859,0.084 -0.16602,0.10937 -0.0563,0.025 -0.11864,0.0371 -0.18555,0.0371 -0.12946,0 -0.22682,-0.0474 -0.30273,-0.14648 -0.075,-0.0987 -0.11328,-0.23842 -0.11328,-0.42188 0,-0.0948 0.013,-0.17768 0.0391,-0.25 0.0271,-0.0732 0.0628,-0.13514 0.10742,-0.18555 0.044,-0.0492 0.0946,-0.0857 0.15235,-0.11132 0.0588,-0.0258 0.11728,-0.0391 0.17968,-0.0391 0.0583,0 0.1109,0.007 0.1543,0.0195 0.0441,0.0117 0.0907,0.0287 0.14063,0.0547 l 0.0469,0.0254 z"
     id="path491"
     sodipodi:nodetypes="ccccscccscsccccccccccccccscscccscccc" />
  <path
     style="color:#000000;font-size:2.11667px;fill:#000000;fill-opacity:0.707989;stroke:none;stroke-width:0.0649999;stroke-opacity:1;-inkscape-stroke:none"
     d="m 138.72852,144.1875 c -0.0727,0 -0.14432,0.015 -0.2129,0.0449 -0.0495,0.0216 -0.0958,0.0563 -0.14257,0.0899 v -0.10352 h -0.25782 v 1.2207 h 0.25782 v -0.87695 c 0.0477,-0.0353 0.0971,-0.0666 0.14843,-0.0898 0.0545,-0.0247 0.10463,-0.0352 0.15235,-0.0352 0.0486,0 0.0867,0.008 0.11328,0.0195 0.0268,0.0114 0.0448,0.0276 0.0586,0.0508 h 0.002 c 0.0129,0.0202 0.0237,0.0519 0.0293,0.0957 0.006,0.0446 0.008,0.0927 0.008,0.14453 v 0.6914 h 0.25976 v -0.0332 -0.75 c 0,-0.14627 -0.0334,-0.26299 -0.10547,-0.3457 -0.0722,-0.0828 -0.17931,-0.12305 -0.31054,-0.12305 z m 0,0.0644 c 0.11819,0 0.20298,0.0342 0.26171,0.10157 0.0588,0.0675 0.0899,0.1665 0.0899,0.30273 v 0.7168 h -0.13086 v -0.625 c 0,-0.0543 -0.002,-0.10461 -0.008,-0.15235 -0.006,-0.0492 -0.0191,-0.0892 -0.0391,-0.12109 -0.0206,-0.0347 -0.0518,-0.0619 -0.0898,-0.0781 -0.0383,-0.0171 -0.084,-0.0234 -0.13867,-0.0234 -0.0584,0 -0.11842,0.0133 -0.17969,0.041 -0.0602,0.0273 -0.11696,0.0615 -0.17187,0.10352 l -0.0137,0.01 v 0.84571 h -0.1289 v -1.08789 h 0.1289 v 0.16406 l 0.0527,-0.0449 c 0.0586,-0.0486 0.11996,-0.0863 0.18164,-0.11328 0.0609,-0.0266 0.12179,-0.0391 0.18555,-0.0391 z"
     id="path493" />
  <path
     style="color:#000000;font-size:2.11667px;fill:#000000;fill-opacity:0.707989;stroke:none;stroke-width:0.0649999;stroke-opacity:1;-inkscape-stroke:none"
     d="m 139.9375,144.1875 c -0.17057,0 -0.31159,0.0594 -0.41406,0.17578 -0.10191,0.11584 -0.15235,0.27318 -0.15235,0.4668 0,0.19362 0.0504,0.35097 0.15235,0.46679 0.10249,0.11569 0.24354,0.17383 0.41406,0.17383 0.1692,0 0.30966,-0.0582 0.41211,-0.17383 0.10263,-0.11581 0.15234,-0.27313 0.15234,-0.46679 0,-0.19366 -0.0497,-0.35098 -0.15234,-0.4668 -0.10242,-0.11632 -0.24286,-0.17578 -0.41211,-0.17578 z m 0,0.0644 c 0.15459,0 0.27278,0.0515 0.36328,0.1543 0.0903,0.10191 0.13672,0.24128 0.13672,0.42383 0,0.18255 -0.0464,0.32192 -0.13672,0.42383 -0.0905,0.10211 -0.20864,0.15234 -0.36328,0.15234 -0.15608,0 -0.27481,-0.0503 -0.36523,-0.15234 -0.0897,-0.10189 -0.13477,-0.24124 -0.13477,-0.42383 0,-0.18259 0.0451,-0.32193 0.13477,-0.42383 0.0904,-0.10273 0.2092,-0.1543 0.36523,-0.1543 z"
     id="path495"
     sodipodi:nodetypes="scscssscsscssscsss" />
  <path
     style="color:#000000;font-size:2.11667px;fill:#000000;fill-opacity:0.707989;stroke:none;stroke-width:0.0649999;stroke-opacity:1;-inkscape-stroke:none"
     d="m 141.25391,144.19141 c -0.17704,0 -0.3234,0.058 -0.4336,0.17187 -0.10994,0.11434 -0.16406,0.27207 -0.16406,0.4668 0,0.10423 0.0138,0.19719 0.043,0.27734 0.029,0.0796 0.069,0.14589 0.12305,0.19922 0.0531,0.0531 0.11766,0.0929 0.1914,0.11914 0.0734,0.0255 0.15373,0.0391 0.24024,0.0391 0.0683,0 0.13423,-0.009 0.19531,-0.0273 0.0606,-0.0178 0.12338,-0.0426 0.18945,-0.0742 l 0.0176,-0.01 v -0.0195 -0.24609 h -0.0547 l -0.008,0.006 c -0.0132,0.0107 -0.0324,0.0248 -0.0566,0.041 -0.0239,0.0153 -0.0488,0.0289 -0.0762,0.043 -0.0299,0.0153 -0.0649,0.0292 -0.10352,0.0391 -0.0382,0.01 -0.0749,0.0137 -0.11133,0.0137 -0.1059,0 -0.18181,-0.0326 -0.23828,-0.0996 -0.0557,-0.0675 -0.0859,-0.16643 -0.0859,-0.30078 0,-0.13853 0.0313,-0.23886 0.0879,-0.30469 0.0581,-0.0674 0.13339,-0.0996 0.23632,-0.0996 0.0554,0 0.11244,0.0117 0.17188,0.0352 0.0602,0.0236 0.11871,0.0571 0.17578,0.10156 l 0.01,0.008 h 0.0527 v -0.26953 l -0.0176,-0.01 c -0.0551,-0.0279 -0.11586,-0.0512 -0.18164,-0.0703 -0.0663,-0.0195 -0.13394,-0.0293 -0.20312,-0.0293 z m 0,0.0664 c 0.0631,0 0.12507,0.008 0.18554,0.0254 0.0558,0.0162 0.10561,0.0362 0.15235,0.0586 v 0.14453 c -0.0486,-0.0334 -0.0987,-0.0657 -0.15039,-0.0859 -0.066,-0.0261 -0.13092,-0.0391 -0.19532,-0.0391 -0.11755,0 -0.21506,0.0417 -0.28515,0.12304 -0.0702,0.0816 -0.10352,0.1976 -0.10352,0.34571 0,0.144 0.0313,0.25909 0.0996,0.34179 0.0689,0.0818 0.1689,0.125 0.28906,0.125 0.0421,0 0.0839,-0.007 0.12696,-0.0176 0.0427,-0.0109 0.0823,-0.0252 0.11718,-0.043 0.0291,-0.0149 0.0563,-0.0304 0.082,-0.0469 0.008,-0.005 0.0126,-0.009 0.0195,-0.0137 v 0.13672 c -0.0565,0.0261 -0.11111,0.0475 -0.16211,0.0625 -0.0547,0.0163 -0.11316,0.0254 -0.17578,0.0254 -0.0802,0 -0.15296,-0.0123 -0.21875,-0.0352 -0.0654,-0.0233 -0.11986,-0.0574 -0.16602,-0.10351 -0.0465,-0.0459 -0.0832,-0.10575 -0.10937,-0.17774 -0.0259,-0.0714 -0.0391,-0.15556 -0.0391,-0.2539 0,-0.18286 0.0497,-0.32124 0.14649,-0.42188 0.0979,-0.10112 0.22336,-0.15039 0.38672,-0.15039 z"
     id="path497" />
  <path
     style="color:#000000;font-size:2.11667px;fill:#000000;fill-opacity:0.707989;stroke:none;stroke-width:0.0649999;stroke-opacity:1;-inkscape-stroke:none"
     d="m 141.8418,143.76562 v 1.67383 h 0.25781 v -0.87695 c 0.0477,-0.0353 0.0971,-0.0666 0.14844,-0.0898 0.0545,-0.0247 0.10462,-0.0352 0.15234,-0.0352 0.0486,0 0.0868,0.008 0.11328,0.0195 0.0268,0.0114 0.0468,0.0276 0.0606,0.0508 0.0129,0.0202 0.0237,0.0519 0.0293,0.0957 0.006,0.0446 0.008,0.0927 0.008,0.14453 v 0.6914 h 0.25976 v -0.0332 -0.75 c 0,-0.14627 -0.0334,-0.26299 -0.10547,-0.3457 -0.0722,-0.0828 -0.17931,-0.12305 -0.31054,-0.12305 -0.0727,0 -0.14432,0.015 -0.21289,0.0449 -0.0495,0.0216 -0.0958,0.0563 -0.14258,0.0899 v -0.55665 z m 0.0644,0.0645 h 0.12891 v 0.61914 l 0.0527,-0.0449 c 0.0585,-0.0486 0.1199,-0.0863 0.18164,-0.11328 0.0609,-0.0266 0.12179,-0.0391 0.18555,-0.0391 0.11819,0 0.20298,0.0342 0.26172,0.10157 0.0588,0.0675 0.0898,0.1665 0.0898,0.30273 v 0.7168 h -0.12891 v -0.625 c 0,-0.0543 -0.004,-0.10461 -0.01,-0.15235 -0.006,-0.0492 -0.0191,-0.0892 -0.0391,-0.12109 -0.0204,-0.0343 -0.0505,-0.0619 -0.0879,-0.0781 h -0.002 c -0.038,-0.0166 -0.0847,-0.0234 -0.13867,-0.0234 -0.0584,0 -0.11842,0.0133 -0.17969,0.041 -0.0602,0.0273 -0.11695,0.0615 -0.17187,0.10352 l -0.0137,0.01 v 0.84571 h -0.12891 z"
     id="path499" />
  <path
     style="color:#000000;font-size:2.11667px;fill:#000000;fill-opacity:0.707989;stroke:none;stroke-width:0.0649999;stroke-opacity:1;-inkscape-stroke:none"
     d="m 132.83398,146.41211 v 1.67187 h 0.24024 l 0.01,-0.0391 c 0.0364,0.0177 0.074,0.0352 0.11133,0.0469 0.053,0.0172 0.11355,0.0254 0.18164,0.0254 0.0744,0 0.14396,-0.014 0.20703,-0.043 v -0.002 c 0.0628,-0.0296 0.12046,-0.0718 0.17188,-0.12891 v -0.002 c 0.049,-0.0556 0.0892,-0.1234 0.11719,-0.20313 v -0.002 c 0.0273,-0.0773 0.0398,-0.164 0.041,-0.25781 l 0.002,-0.002 v -0.01 c 0,-0.19536 -0.04,-0.35059 -0.125,-0.46289 -0.084,-0.11196 -0.20487,-0.17188 -0.34961,-0.17188 -0.0806,0 -0.15466,0.0157 -0.22071,0.0469 -0.0453,0.0208 -0.0854,0.0526 -0.12695,0.082 v -0.54883 z m 0.0664,0.0644 h 0.12891 v 0.61133 l 0.0527,-0.0449 c 0.0524,-0.0431 0.10728,-0.0784 0.16602,-0.10547 h 0.002 c 0.0566,-0.0267 0.11903,-0.0391 0.19141,-0.0391 0.12811,0 0.22374,0.047 0.29687,0.14453 0.0735,0.0972 0.11328,0.23746 0.11328,0.42383 0,0.0934 -0.0149,0.17491 -0.041,0.24804 -0.0257,0.0739 -0.0605,0.13483 -0.10352,0.1836 -0.0461,0.051 -0.0966,0.0899 -0.15039,0.11523 -0.0541,0.0248 -0.11358,0.0371 -0.17969,0.0371 -0.0628,0 -0.1153,-0.007 -0.16015,-0.0215 -0.0467,-0.0145 -0.093,-0.0334 -0.13868,-0.0586 l -0.0391,-0.0215 -0.0156,0.0703 h -0.12305 z"
     id="path501"
     sodipodi:nodetypes="cccccsccccccccscsccccccccccscscccscccccc" />
  <path
     style="color:#000000;font-size:2.11667px;fill:#000000;fill-opacity:0.707989;stroke:none;stroke-width:0.0649999;stroke-opacity:1;-inkscape-stroke:none"
     d="m 134.66602,146.83398 c -0.17527,0 -0.3223,0.0584 -0.43165,0.17579 -0.1089,0.11767 -0.1621,0.27797 -0.1621,0.47265 0,0.19696 0.0553,0.3539 0.16992,0.46485 0.11444,0.11003 0.27526,0.16406 0.47265,0.16406 0.0778,0 0.15153,-0.01 0.22266,-0.0293 0.0696,-0.019 0.13831,-0.0422 0.20508,-0.0703 l 0.0195,-0.008 v -0.26563 h -0.0547 l -0.01,0.008 c -0.0285,0.0256 -0.0821,0.055 -0.16016,0.0859 -0.0759,0.0297 -0.15034,0.0449 -0.22461,0.0449 -0.0562,0 -0.10838,-0.008 -0.1543,-0.0234 -0.045,-0.0152 -0.0829,-0.0365 -0.11523,-0.0664 v -0.002 c -0.0334,-0.0302 -0.0603,-0.0687 -0.0801,-0.11719 -0.0157,-0.0391 -0.0203,-0.0889 -0.0234,-0.14063 h 0.84571 v -0.0332 -0.10547 c 0,-0.17291 -0.0452,-0.30997 -0.13672,-0.4082 -0.0909,-0.0983 -0.22077,-0.14649 -0.38281,-0.14649 z m 0,0.0645 c 0.14939,0 0.25866,0.0414 0.33593,0.125 0.078,0.0837 0.11719,0.20328 0.11719,0.36523 v 0.0742 h -0.84961 v 0.0312 c 0,0.0742 0.01,0.14151 0.0332,0.19922 0.0229,0.0563 0.0565,0.10335 0.0977,0.14062 0.0392,0.0362 0.0858,0.0642 0.13867,0.082 0.0533,0.0178 0.11154,0.0254 0.17383,0.0254 0.0828,0 0.16541,-0.0165 0.24805,-0.0488 0.0622,-0.0247 0.0995,-0.0486 0.13672,-0.0742 v 0.13867 c -0.0581,0.0236 -0.11742,0.046 -0.17774,0.0625 -0.0653,0.0178 -0.13266,0.0273 -0.20508,0.0273 -0.18494,0 -0.32533,-0.0506 -0.42578,-0.14648 -0.10035,-0.0971 -0.15234,-0.23321 -0.15234,-0.41797 0,-0.1829 0.0481,-0.32355 0.14453,-0.42773 0.0974,-0.10451 0.22379,-0.15625 0.38477,-0.15625 z"
     id="path503"
     sodipodi:nodetypes="ccscscccccccscccccccscccccsccscccsccccscsccc" />
  <path
     style="color:#000000;font-size:2.11667px;fill:#000000;fill-opacity:0.707989;stroke:none;stroke-width:0.0649999;stroke-opacity:1;-inkscape-stroke:none"
     d="m 136.0293,146.83398 c -0.0727,0 -0.14432,0.015 -0.21289,0.0449 -0.0495,0.0216 -0.0959,0.0544 -0.14258,0.0879 v -0.10157 h -0.25977 v 1.21875 h 0.25977 v -0.875 c 0.0477,-0.0353 0.0971,-0.0666 0.14844,-0.0898 0.0545,-0.0247 0.10462,-0.0352 0.15234,-0.0352 0.0486,0 0.0867,0.006 0.11328,0.0176 0.0268,0.0114 0.0448,0.0276 0.0586,0.0508 v 0.002 c 0.0129,0.0202 0.0237,0.0519 0.0293,0.0957 0.006,0.0446 0.01,0.0927 0.01,0.14453 v 0.68945 h 0.25976 v -0.0312 -0.75 c 0,-0.14626 -0.0353,-0.26299 -0.10742,-0.3457 -0.0722,-0.0828 -0.17736,-0.12305 -0.30859,-0.12305 z m 0,0.0645 c 0.11819,0 0.20103,0.0342 0.25976,0.10156 0.0588,0.0675 0.0918,0.16651 0.0918,0.30273 l -0.002,0.7168 H 136.25 v -0.625 c 0,-0.0543 -0.004,-0.10462 -0.01,-0.15234 -0.006,-0.0499 -0.0166,-0.0909 -0.0371,-0.12305 -0.0206,-0.0347 -0.0518,-0.06 -0.0898,-0.0762 -0.0383,-0.0171 -0.084,-0.0254 -0.13867,-0.0254 -0.0584,0 -0.11842,0.0152 -0.17969,0.043 -0.0602,0.0273 -0.11891,0.0615 -0.17383,0.10351 l -0.0117,0.01 v 0.8457 h -0.1289 v -1.08984 h 0.1289 v 0.16601 l 0.0527,-0.0449 c 0.0585,-0.0485 0.11795,-0.0863 0.17969,-0.11328 0.0609,-0.0266 0.12374,-0.0391 0.1875,-0.0391 z"
     id="path505" />
  <path
     style="color:#000000;font-size:2.11667px;fill:#000000;fill-opacity:0.707989;stroke:none;stroke-width:0.0649999;stroke-opacity:1;-inkscape-stroke:none"
     d="m 136.88867,146.4707 v 0.26563 h 0.27149 v -0.0312 -0.23438 z m 0.42774,0 v 0.26563 h 0.26953 v -0.0312 -0.23438 z m -0.36133,0.0645 h 0.14062 v 0.13671 h -0.14062 z m 0.42578,0 h 0.14062 v 0.13671 h -0.14062 z m -0.14258,0.29882 c -0.17057,0 -0.31159,0.0575 -0.41406,0.17383 -0.10191,0.11584 -0.15235,0.27318 -0.15235,0.4668 0,0.19362 0.0504,0.35096 0.15235,0.4668 0.1025,0.11568 0.24354,0.17578 0.41406,0.17578 0.1692,0 0.30966,-0.0602 0.41211,-0.17578 0.10263,-0.11582 0.15234,-0.27314 0.15234,-0.4668 0,-0.19366 -0.0497,-0.35098 -0.15234,-0.4668 -0.10242,-0.11632 -0.24286,-0.17383 -0.41211,-0.17383 z m 0,0.0645 c 0.15459,0 0.27278,0.0496 0.36328,0.15234 0.0903,0.10191 0.13672,0.24129 0.13672,0.42383 0,0.18254 -0.0464,0.32191 -0.13672,0.42383 -0.0905,0.10211 -0.20864,0.15234 -0.36328,0.15234 -0.15608,0 -0.27481,-0.0503 -0.36523,-0.15234 -0.0897,-0.1019 -0.13672,-0.24125 -0.13672,-0.42383 0,-0.18258 0.0471,-0.32193 0.13672,-0.42383 0.0905,-0.10272 0.2092,-0.15234 0.36523,-0.15234 z"
     id="path507"
     sodipodi:nodetypes="ccccccccccccccccccccccscscssscsscssscscs" />
  <path
     style="color:#000000;font-size:2.11667px;fill:#000000;fill-opacity:0.707989;stroke:none;stroke-width:0.0649999;stroke-opacity:1;-inkscape-stroke:none"
     d="m 138.04297,146.5332 v 0.33203 h -0.13086 v 0.22852 h 0.13086 v 0.58008 c 0,0.14461 0.0319,0.25614 0.10156,0.32812 0.0685,0.0709 0.16736,0.10547 0.29102,0.10547 0.0357,0 0.0752,-0.004 0.11914,-0.01 0.0445,-0.006 0.0871,-0.0153 0.125,-0.0254 l 0.0234,-0.006 v -0.0254 -0.20704 h -0.0488 l -0.006,0.002 c -0.0126,0.005 -0.0383,0.0139 -0.0723,0.0234 -0.0314,0.008 -0.0618,0.0117 -0.0898,0.0117 -0.052,0 -0.0881,-0.007 -0.10742,-0.0156 -0.0203,-0.0102 -0.0365,-0.0244 -0.0488,-0.0469 -0.0144,-0.0257 -0.0211,-0.0528 -0.0234,-0.082 -0.003,-0.033 -0.004,-0.0805 -0.004,-0.14062 v -0.49219 h 0.40039 v -0.22852 h -0.40039 v -0.33203 z m 0.0644,0.0645 h 0.12891 v 0.33203 h 0.40234 v 0.0977 h -0.40234 v 0.5586 c 0,0.0611 0.001,0.11054 0.004,0.14648 0.003,0.0383 0.0144,0.0738 0.0332,0.10742 0.0179,0.0326 0.0441,0.0581 0.0762,0.0742 h 0.002 c 0.0344,0.0159 0.0779,0.0215 0.13477,0.0215 0.0347,0 0.0706,-0.004 0.10742,-0.0137 0.02,-0.006 0.0309,-0.009 0.0449,-0.0137 v 0.10547 c -0.0292,0.007 -0.058,0.0147 -0.0918,0.0195 -0.0416,0.006 -0.0795,0.008 -0.11132,0.008 -0.112,0 -0.19006,-0.0281 -0.24414,-0.084 -0.053,-0.0548 -0.084,-0.14809 -0.084,-0.2832 v -0.64649 h -0.13086 v -0.0977 h 0.13086 z"
     id="path509" />
  <path
     style="color:#000000;font-size:2.11667px;fill:#000000;fill-opacity:0.707989;stroke:none;stroke-width:0.0649999;stroke-opacity:1;-inkscape-stroke:none"
     d="m 138.86133,146.4707 v 0.26563 h 0.28515 v -0.0312 -0.23438 z m 0.0664,0.0645 h 0.1543 v 0.13671 h -0.1543 z m -0.0527,0.33007 v 1.21875 h 0.25977 v -0.0312 -1.1875 z m 0.0644,0.0645 h 0.12891 v 1.08984 h -0.12891 z"
     id="path511" />
  <path
     style="color:#000000;font-size:2.11667px;fill:#000000;fill-opacity:0.707989;stroke:none;stroke-width:0.0649999;stroke-opacity:1;-inkscape-stroke:none"
     d="m 139.91602,146.83398 c -0.0681,0 -0.13549,0.0139 -0.20313,0.043 -0.0681,0.0285 -0.12582,0.0687 -0.17383,0.1211 -0.0511,0.0555 -0.0915,0.12156 -0.12109,0.19726 -0.0293,0.0763 -0.0449,0.16731 -0.0449,0.26953 0,0.18604 0.0422,0.33403 0.1289,0.44141 0.087,0.10618 0.20791,0.16016 0.35352,0.16016 0.0856,0 0.15811,-0.012 0.2168,-0.0371 0.0399,-0.0174 0.0816,-0.0473 0.12304,-0.0762 V 148 c 0,0.0445 -0.004,0.0846 -0.0137,0.11914 -0.009,0.0336 -0.0243,0.0611 -0.0449,0.084 -0.0198,0.0232 -0.0485,0.0422 -0.0879,0.0566 -0.0384,0.014 -0.0908,0.0215 -0.1543,0.0215 -0.066,0 -0.131,-0.007 -0.19726,-0.0254 -0.0683,-0.0178 -0.11928,-0.0335 -0.14844,-0.0449 l -0.006,-0.002 h -0.0488 v 0.25586 l 0.0234,0.006 c 0.0579,0.0163 0.1165,0.0286 0.17578,0.0371 0.0602,0.009 0.12264,0.0137 0.18555,0.0137 0.19003,0 0.33687,-0.0468 0.43359,-0.14648 0.0969,-0.0999 0.14258,-0.25448 0.14258,-0.45508 v -1.05469 h -0.24024 l -0.008,0.0371 c -0.0384,-0.0188 -0.077,-0.0364 -0.11328,-0.0469 -0.0491,-0.0151 -0.10866,-0.0215 -0.17773,-0.0215 z m 0,0.0645 c 0.0646,0 0.11776,0.007 0.1582,0.0195 h 0.002 c 0.0427,0.0123 0.0881,0.0319 0.13672,0.0586 l 0.0371,0.0195 0.0156,-0.0664 h 0.125 v 0.99023 c 1e-5,0.19076 -0.0442,0.32682 -0.125,0.41016 -0.0811,0.0836 -0.20744,0.12695 -0.38671,0.12695 -0.0598,0 -0.1189,-0.005 -0.17579,-0.0137 -0.0479,-0.007 -0.0956,-0.0171 -0.14257,-0.0293 v -0.13281 c 0.0324,0.011 0.0653,0.0231 0.11914,0.0371 0.0715,0.0193 0.14302,0.0293 0.21484,0.0293 0.0687,0 0.12737,-0.008 0.17578,-0.0254 0.0474,-0.0173 0.0868,-0.0429 0.11524,-0.0762 0.0277,-0.0308 0.0471,-0.0672 0.0586,-0.10937 0.0112,-0.0411 0.0156,-0.0874 0.0156,-0.13672 v -0.17188 l -0.0527,0.041 c -0.0569,0.0455 -0.10975,0.0796 -0.16016,0.10156 -0.0475,0.0203 -0.11171,0.0312 -0.1914,0.0312 -0.13001,0 -0.22714,-0.0445 -0.30274,-0.13672 -0.0746,-0.0924 -0.11328,-0.22399 -0.11328,-0.40039 0,-0.0962 0.0133,-0.17913 0.0391,-0.24609 0.0269,-0.069 0.0621,-0.12657 0.10742,-0.17578 0.0416,-0.0454 0.0923,-0.0803 0.15234,-0.10547 0.0605,-0.026 0.11903,-0.0391 0.17774,-0.0391 z"
     id="path513"
     sodipodi:nodetypes="ccccscsccsccsscccccccsssccccccccccccccssccccsccsscccscsccccc" />
  <path
     style="color:#000000;font-size:2.11667px;fill:#000000;fill-opacity:0.707989;stroke:none;stroke-width:0.0649999;stroke-opacity:1;-inkscape-stroke:none"
     d="m 140.77539,146.5332 v 0.33203 h -0.13086 v 0.22852 h 0.13086 v 0.58008 c 0,0.14461 0.0319,0.25614 0.10156,0.32812 0.0686,0.0709 0.16932,0.10547 0.29297,0.10547 0.0357,0 0.0752,-0.004 0.11914,-0.01 0.0445,-0.006 0.0851,-0.0153 0.12305,-0.0254 l 0.0254,-0.006 v -0.0254 l -0.002,-0.20704 h -0.0488 l -0.006,0.002 c -0.0126,0.005 -0.0364,0.0139 -0.0703,0.0234 -0.0321,0.008 -0.0612,0.0117 -0.0899,0.0117 -0.0511,0 -0.0879,-0.007 -0.10742,-0.0156 h -0.002 c -0.0197,-0.0102 -0.0348,-0.0248 -0.0469,-0.0469 -0.0144,-0.0257 -0.0231,-0.0528 -0.0254,-0.082 -0.003,-0.033 -0.004,-0.0805 -0.004,-0.14062 v -0.49219 h 0.40234 v -0.22852 h -0.40234 v -0.33203 z m 0.0664,0.0645 h 0.1289 v 0.33203 h 0.40039 v 0.0977 h -0.40039 v 0.5586 c 0,0.0611 0.001,0.11054 0.004,0.14648 0.003,0.0383 0.0144,0.0738 0.0332,0.10742 0.0179,0.0326 0.0441,0.0581 0.0762,0.0742 0.0344,0.0159 0.0798,0.0215 0.13672,0.0215 0.0347,0 0.0706,-0.004 0.10742,-0.0137 0.0192,-0.005 0.0293,-0.009 0.043,-0.0137 v 0.10742 c -0.0287,0.007 -0.0587,0.0128 -0.0918,0.0176 -0.0416,0.006 -0.0776,0.008 -0.10938,0.008 -0.112,0 -0.192,-0.0281 -0.24609,-0.084 -0.053,-0.0548 -0.082,-0.14809 -0.082,-0.2832 v -0.64649 h -0.13086 v -0.0977 h 0.13086 z"
     id="path515" />
  <path
     style="color:#000000;font-size:2.11667px;fill:#000000;fill-opacity:0.707989;stroke:none;stroke-width:0.0649999;stroke-opacity:1;-inkscape-stroke:none"
     d="m 141.67578,147.72461 v 0.35937 h 0.3125 v -0.0312 -0.32812 z m 0.0664,0.0644 h 0.18164 v 0.23047 h -0.18164 z"
     id="path517" />
</svg>
